<svg width="837" height="591" viewBox="0 0 837 591" fill="none" xmlns="http://www.w3.org/2000/svg">
<path d="M708.029 70H604.148V170.195H708.029V70Z" fill="#E6E6E6"/>
<path d="M655.386 85.8262C650.824 78.1259 641.803 77.7672 641.803 77.7672C641.803 77.7672 633.011 76.6439 627.37 88.3711C622.113 99.3023 614.858 109.855 626.203 112.415L628.252 106.042L629.522 112.889C631.137 113.005 632.757 113.033 634.375 112.972C646.525 112.58 658.095 113.087 657.722 108.732C657.226 102.94 659.774 93.2351 655.386 85.8262Z" fill="#2F2E41"/>
<path d="M624.252 158.946L608.871 169.617C608.871 169.617 599.899 179.009 606.308 179.009C612.717 179.009 615.28 170.898 615.28 170.898L634.933 162.36L624.252 158.946Z" fill="#FFB8B8"/>
<path d="M630.447 117.321C630.447 117.321 616.989 158.947 621.261 161.081C625.533 163.214 634.932 164.496 634.932 164.496L630.447 117.321Z" fill="#D97927"/>
<path opacity="0.1" d="M630.447 117.321C630.447 117.321 616.989 158.947 621.261 161.081C625.533 163.214 634.932 164.496 634.932 164.496L630.447 117.321Z" fill="#F58220"/>
<path d="M672.757 169.833H642.461L663.985 158.947C664.46 159.254 664.915 159.591 665.348 159.954C668.54 162.639 671.074 166.018 672.757 169.833Z" fill="#2F2E41"/>
<path d="M638.992 106.648C645.126 106.648 650.1 101.678 650.1 95.5482C650.1 89.418 645.126 84.4485 638.992 84.4485C632.857 84.4485 627.884 89.418 627.884 95.5482C627.884 101.678 632.857 106.648 638.992 106.648Z" fill="#FFB8B8"/>
<path d="M638.778 104.727C638.778 104.727 641.342 112.838 638.778 115.827C636.215 118.816 652.877 111.558 652.877 111.558C652.877 111.558 646.896 103.02 648.605 99.1772L638.778 104.727Z" fill="#FFB8B8"/>
<path d="M663.386 141.788L662.489 147.633C662.489 147.633 662.942 148.96 663.493 150.894C664.211 153.417 665.095 156.972 665.347 159.953C665.608 162.976 665.215 165.409 663.343 165.563C660.661 165.785 659.263 167.411 657.87 169.832H626.964C627.045 168.5 627.143 167.117 627.258 165.695C627.323 164.842 627.393 163.976 627.471 163.1C627.556 162.092 630.583 143.167 628.308 139.094C623.61 130.684 629.59 125.86 629.59 125.86C629.59 125.86 630.444 119.456 630.444 117.322C630.444 115.648 637.007 113.714 639.844 112.954C640.028 112.907 640.19 112.86 640.339 112.826C640.83 112.698 641.125 112.626 641.125 112.626L643.368 111.707C643.368 111.707 649.67 110.49 650.097 109.636C650.37 109.268 650.753 108.996 651.191 108.859C652.092 108.475 653.242 108.201 653.515 107.928C653.906 107.479 654.258 107 654.57 106.493C655.39 105.554 656.494 104.909 657.715 104.656C662.303 103.499 668.896 105.792 668.896 105.792L666.589 120.841L663.386 141.788Z" fill="#F58220"/>
<path d="M676.803 132.477L661.422 143.148C661.422 143.148 652.45 152.541 658.859 152.541C665.268 152.541 667.829 144.431 667.829 144.431L687.482 135.893L676.803 132.477Z" fill="#FFB8B8"/>
<path d="M650.379 85.0838L641.465 80.4195L635.874 81.2852C633.893 81.5925 632.05 82.488 630.584 83.8554C629.119 85.2228 628.098 86.9989 627.656 88.9531L626.609 93.5672L632.949 93.3234L634.721 89.1937V93.2552L637.646 93.1429L639.344 86.5683L640.404 93.5669L650.804 93.3549L650.379 85.0838Z" fill="#2F2E41"/>
<path d="M665.908 106.648L668.898 105.794C668.898 105.794 699.232 118.175 698.378 128.848C697.524 139.521 698.805 139.519 693.678 139.948C688.552 140.376 673.6 135.252 674.024 134.398C674.448 133.544 677.442 129.274 677.442 129.274L665.906 120.309L665.908 106.648Z" fill="#F58220"/>
<path d="M650.1 97.2563C651.044 97.2563 651.809 96.4917 651.809 95.5485C651.809 94.6054 651.044 93.8408 650.1 93.8408C649.156 93.8408 648.391 94.6054 648.391 95.5485C648.391 96.4917 649.156 97.2563 650.1 97.2563Z" fill="#FFB8B8"/>
<path d="M797 381H25C11.1929 381 0 392.193 0 406V502C0 515.807 11.1929 527 25 527H797C810.807 527 822 515.807 822 502V406C822 392.193 810.807 381 797 381Z" fill="#E6E6E6"/>
<path d="M560.88 158.311V280.063H244.258V158.311C244.258 117.906 259.706 79.03 287.44 49.6461C315.173 20.2621 353.092 2.59413 393.429 0.26115C396.452 0.084916 399.498 -0.00212043 402.569 3.92175e-05C404.318 3.92175e-05 406.061 0.0261356 407.791 0.0914228C447.96 1.36255 486.129 17.915 514.509 46.3704C515.365 47.2256 516.207 48.0873 517.049 48.9621C545.19 78.4105 560.89 117.578 560.88 158.311V158.311Z" fill="#E6E6E6"/>
<path d="M407.791 0.0914517V280.063H393.429V0.26115C396.452 0.084916 399.498 -0.00212043 402.569 3.92175e-05C404.318 3.92175e-05 406.061 0.0261392 407.791 0.0914517Z" fill="white"/>
<path d="M529.224 63.3244H275.914C279.684 58.3004 283.75 53.5045 288.089 48.9622H517.049C521.388 53.5045 525.453 58.3004 529.224 63.3244V63.3244Z" fill="white"/>
<path d="M536.784 104.453H424.569V294.425H536.784V104.453Z" fill="white"/>
<path d="M463.701 136.547H446.727V153.521H463.701V136.547Z" fill="#E6E6E6"/>
<path d="M491.048 136.547H474.074V153.521H491.048V136.547Z" fill="#E6E6E6"/>
<path d="M518.395 136.547H501.421V153.521H518.395V136.547Z" fill="#E6E6E6"/>
<path d="M464.173 175.209H447.199V192.183H464.173V175.209Z" fill="#E6E6E6"/>
<path d="M491.52 175.209H474.546V192.183H491.52V175.209Z" fill="#E6E6E6"/>
<path d="M518.867 175.209H501.893V192.183H518.867V175.209Z" fill="#E6E6E6"/>
<path d="M464.644 213.872H447.671V230.846H464.644V213.872Z" fill="#E6E6E6"/>
<path d="M491.991 213.872H475.017V230.846H491.991V213.872Z" fill="#E6E6E6"/>
<path d="M519.338 213.872H502.364V230.846H519.338V213.872Z" fill="#E6E6E6"/>
<path d="M465.116 252.535H448.142V269.509H465.116V252.535Z" fill="#E6E6E6"/>
<path d="M492.463 252.535H475.489V269.509H492.463V252.535Z" fill="#E6E6E6"/>
<path d="M519.809 252.535H502.836V269.509H519.809V252.535Z" fill="#E6E6E6"/>
<path d="M465.116 252.535H448.142V269.509H465.116V252.535Z" fill="#E6E6E6"/>
<path d="M492.463 252.535H475.489V269.509H492.463V252.535Z" fill="#E6E6E6"/>
<path d="M519.809 252.535H502.836V269.509H519.809V252.535Z" fill="#E6E6E6"/>
<path d="M281.895 241.435C294.815 241.435 305.289 230.961 305.289 218.041C305.289 205.121 294.815 194.647 281.895 194.647C268.974 194.647 258.5 205.121 258.5 218.041C258.5 230.961 268.974 241.435 281.895 241.435Z" fill="white"/>
<path d="M281.959 218.041H282.023L283.18 284.368H280.738L281.959 218.041Z" fill="white"/>
<path d="M286.218 254.169L285.679 253.145L281.812 255.181L282.351 256.205L286.218 254.169Z" fill="white"/>
<path d="M350.673 219.082C370.321 219.082 386.248 203.154 386.248 183.506C386.248 163.859 370.321 147.931 350.673 147.931C331.025 147.931 315.098 163.859 315.098 183.506C315.098 203.154 331.025 219.082 350.673 219.082Z" fill="white"/>
<path d="M350.771 183.506H350.868L352.627 284.368H348.914L350.771 183.506Z" fill="white"/>
<path d="M357.248 238.445L356.429 236.888L350.548 239.984L351.368 241.541L357.248 238.445Z" fill="white"/>
<path d="M277.298 149.536L283.308 144.73C278.639 144.215 276.721 146.761 275.936 148.776C272.288 147.262 268.318 149.247 268.318 149.247L280.342 153.612C279.735 151.992 278.679 150.578 277.298 149.536V149.536Z" fill="white"/>
<path d="M340.622 110.367L346.632 105.56C341.963 105.045 340.045 107.591 339.26 109.607C335.612 108.092 331.642 110.077 331.642 110.077L343.666 114.442C343.06 112.822 342.004 111.408 340.622 110.367V110.367Z" fill="white"/>
<path d="M316.467 147.578L322.477 142.771C317.809 142.256 315.89 144.802 315.105 146.818C311.458 145.303 307.487 147.288 307.487 147.288L319.512 151.653C318.905 150.033 317.849 148.619 316.467 147.578V147.578Z" fill="white"/>
<path d="M577.527 268.701H227.611V297.425H577.527V268.701Z" fill="#E6E6E6"/>
<path d="M639.391 327.109C639.841 327.416 640.265 327.756 640.658 328.125L689.611 319.078L693.544 308.335L711.624 311.778L706.634 331.43C706.231 333.017 705.289 334.44 703.95 335.483C702.61 336.526 700.946 337.135 699.206 337.216L642.511 339.878C641.486 341.643 639.912 343.074 637.998 343.98C636.084 344.887 633.92 345.225 631.796 344.952C629.671 344.678 627.686 343.805 626.103 342.448C624.521 341.091 623.418 339.316 622.939 337.357C622.46 335.398 622.63 333.349 623.424 331.483C624.219 329.616 625.601 328.021 627.387 326.908C629.173 325.796 631.278 325.219 633.422 325.255C635.567 325.291 637.649 325.937 639.391 327.109V327.109Z" fill="#FFB7B7"/>
<path d="M688.419 316.953C688.097 316.423 687.902 315.835 687.845 315.227C687.789 314.62 687.873 314.008 688.092 313.434L695.733 293.384C696.38 290.324 698.295 287.63 701.058 285.892C703.822 284.153 707.208 283.512 710.475 284.11C713.742 284.707 716.623 286.494 718.486 289.078C720.35 291.662 721.043 294.833 720.415 297.896L719.309 319.23C719.277 319.839 719.106 320.435 718.806 320.976C718.507 321.517 718.087 321.992 717.574 322.367C717.062 322.742 716.469 323.01 715.836 323.151C715.203 323.292 714.545 323.304 713.907 323.185L691.476 319.021C690.838 318.903 690.234 318.657 689.707 318.3C689.179 317.943 688.74 317.484 688.419 316.953V316.953Z" fill="#6C63FF"/>
<path d="M676.142 577.006L661.749 577.005L654.903 524.993L676.144 524.994L676.142 577.006Z" fill="#FFB7B7"/>
<path d="M679.812 590.077L633.406 590.075V589.525C633.407 585.037 635.31 580.733 638.697 577.559C642.084 574.385 646.678 572.602 651.469 572.602H651.47L679.813 572.603L679.812 590.077Z" fill="#2F2E41"/>
<path d="M812.427 562.873L799.099 567.958L771.824 522.205L791.498 514.701L812.427 562.873Z" fill="#FFB7B7"/>
<path d="M821.088 573.683L778.107 590.077L777.886 589.567C776.08 585.41 776.11 580.751 777.97 576.615C779.83 572.479 783.368 569.205 787.804 567.512L787.805 567.512L814.056 557.499L821.088 573.683Z" fill="#2F2E41"/>
<path d="M689.236 361.031L682.614 328.204C681.174 323.37 680.919 318.295 681.866 313.356C682.814 308.417 684.94 303.742 688.086 299.681L712.294 269.355L735.416 269.992C746.349 294.817 748.362 322.302 741.151 348.293L736.901 363.612C755.962 379.721 768.741 424.885 780.374 475.354L812.263 541.433L757.4 557.039L721.855 460.131L690.102 557.76L643.607 556.088L678.971 405.075L689.236 361.031Z" fill="#2F2E41"/>
<path d="M726.076 263.225C738.534 263.225 748.632 253.763 748.632 242.091C748.632 230.419 738.534 220.957 726.076 220.957C713.619 220.957 703.52 230.419 703.52 242.091C703.52 253.763 713.619 263.225 726.076 263.225Z" fill="#FFB7B7"/>
<path d="M815.11 290.093C810.92 282.424 809.49 273.715 806.264 265.646C803.039 257.577 797.179 249.571 788.295 247.348C783.255 246.086 777.9 246.856 772.724 246.256C768.172 245.728 763.272 243.55 761.529 239.763C761.879 236.008 761.379 232.227 760.06 228.666C756.813 220.022 749.07 213.198 740.042 209.67C732.71 206.804 724.265 205.995 716.777 208.483C709.289 210.972 703.003 217.054 701.657 224.39C700.311 231.727 704.628 239.919 712.07 242.525C717.413 244.396 724.295 243.773 727.784 248.002C731.318 252.286 728.785 258.529 725.574 263.031L725.794 263.24C736.279 263.355 747.614 261.457 754.835 254.333C755.619 253.556 756.341 252.724 756.993 251.846C757.214 252.179 757.446 252.503 757.695 252.813C761.332 257.337 767.025 259.904 772.449 262.405C777.874 264.906 783.499 267.712 786.757 272.484C792.644 281.106 788.78 292.719 792.147 302.457C793.645 306.792 796.535 310.588 800.421 313.327C804.308 316.067 809.001 317.616 813.862 317.764C818.723 317.911 823.514 316.65 827.582 314.153C831.649 311.655 834.795 308.042 836.591 303.807C827.426 304.524 819.301 297.763 815.11 290.093Z" fill="#2F2E41"/>
<path d="M630.995 298.955C630.995 298.955 566.14 269.099 588.923 248.395C611.707 227.691 630.995 298.955 630.995 298.955Z" fill="#809D82"/>
<path d="M629.866 305.921C629.866 305.921 600.056 207.976 643.952 212.66C687.848 217.345 629.866 305.921 629.866 305.921Z" fill="#809D82"/>
<path d="M608.131 297.235L609.383 313.619L609.402 313.902C609.401 316.461 609.53 319.017 609.79 321.563C611.488 338.275 618.786 345.891 627.316 345.891C635.845 345.891 642.826 338.275 644.524 321.563C644.783 319.017 644.912 316.461 644.911 313.902L644.921 313.674L644.926 313.619L646.182 297.235H608.131Z" fill="#6C63FF"/>
<path d="M644.926 313.619L644.921 313.674L644.911 313.902C644.912 316.46 644.783 319.017 644.524 321.563H609.79C609.53 319.017 609.401 316.46 609.402 313.902L609.382 313.619H644.926Z" fill="white"/>
<path d="M637.901 272.159C638.025 272.668 638.105 273.185 638.142 273.705L681.362 297.067L691.867 291.4L703.066 305.137L685.509 316.862C684.091 317.809 682.383 318.299 680.642 318.26C678.901 318.22 677.22 317.652 675.853 316.641L631.285 283.699C629.274 284.396 627.084 284.504 625.006 284.006C622.928 283.509 621.061 282.431 619.653 280.915C618.245 279.399 617.362 277.518 617.123 275.521C616.885 273.524 617.3 271.506 618.315 269.736C619.33 267.966 620.896 266.527 622.805 265.611C624.714 264.695 626.875 264.345 629.002 264.609C631.128 264.872 633.118 265.735 634.708 267.084C636.298 268.432 637.411 270.203 637.901 272.159V272.159Z" fill="#FFB7B7"/>
<path d="M681.956 294.731C682.086 294.134 682.352 293.57 682.736 293.078C683.12 292.586 683.613 292.177 684.181 291.88L704.014 281.489C706.649 279.583 709.983 278.734 713.285 279.128C716.588 279.522 719.588 281.127 721.629 283.591C723.67 286.055 724.586 289.176 724.174 292.271C723.763 295.366 722.058 298.182 719.434 300.101L703.621 315.487C703.17 315.926 702.623 316.269 702.017 316.492C701.412 316.715 700.762 316.813 700.112 316.78C699.463 316.746 698.828 316.582 698.253 316.299C697.677 316.015 697.173 315.618 696.776 315.136L682.807 298.173C682.409 297.691 682.127 297.133 681.98 296.539C681.833 295.945 681.825 295.329 681.956 294.731V294.731Z" fill="#6C63FF"/>
<path d="M546.191 376.278H250.964V326.158H255.519V288.852C255.529 280.063 259.025 271.636 265.24 265.421C271.455 259.206 279.881 255.71 288.671 255.7H509.02C517.809 255.71 526.236 259.206 532.451 265.421C538.666 271.636 542.162 280.063 542.172 288.852V326.158H546.191V376.278Z" fill="#E4E4E4"/>
<path d="M554.19 431.443H539.493V431.175C539.479 418.177 534.309 405.715 525.118 396.525C515.927 387.334 503.465 382.164 490.468 382.149H306.688C293.69 382.164 281.228 387.334 272.037 396.525C262.847 405.715 257.677 418.177 257.662 431.175V431.443H242.965C239.617 431.439 236.407 430.107 234.039 427.739C231.672 425.372 230.34 422.162 230.336 418.813V336.883C226.068 334.472 222.597 321.377 224.852 310.919C226.267 304.356 230.352 296.43 241.776 295.939C252.896 295.461 261.151 305.901 261.888 315.952C262.288 321.24 260.735 326.492 257.523 330.712H257.662V342.4C281.778 334.672 305.927 330.74 329.446 330.712C353.512 330.735 377.411 334.713 400.187 342.485C447.543 327.168 494.409 326.87 539.493 341.603V330.712H539.633C536.421 326.492 534.867 321.24 535.267 315.952C536.076 304.928 545.093 295.951 555.368 295.939H555.402C567.518 295.939 571.804 303.233 573.266 309.356C575.853 320.191 571.103 334.452 566.819 336.883V418.813C566.815 422.162 565.484 425.372 563.116 427.739C560.748 430.107 557.538 431.439 554.19 431.443V431.443Z" fill="#CACACA"/>
<path d="M450.685 346.953C450.685 346.953 455.104 339.704 460.777 343.99C466.45 348.277 476.956 355.509 476.956 355.509C476.956 355.509 479.108 360.135 473.538 358.397C467.969 356.66 449.787 353.864 449.787 353.864L450.685 346.953Z" fill="#9E616A"/>
<path d="M428.977 355.964C424.223 355.964 419.87 355.508 416.412 354.432C412.301 353.152 409.72 351.082 408.74 348.275C408.279 347.083 408.141 345.791 408.341 344.529C408.54 343.266 409.07 342.08 409.876 341.088C415.957 333.164 437.059 330.93 439.891 330.665L445.635 319.788C446.002 317.193 444.264 315.228 447.268 315.179L482.808 314.697C485.758 314.635 484.921 316.462 485.426 318.992L490.841 328.658L467.537 338.494L471.06 347.079L470.83 347.213C464.01 351.169 444.395 355.963 428.977 355.964Z" fill="#2F2E41"/>
<path d="M487.614 329.071C487.614 329.071 520.16 325.346 518.037 340.244C515.915 355.142 491.152 365.695 453.654 340.244L457.899 332.795C457.899 332.795 471.872 332.1 480.362 328.376L487.614 329.071Z" fill="#2F2E41"/>
<path d="M484.607 253.676L472.907 249.3L450.228 249.007L440.466 253.676L443.208 269.433C443.208 269.433 437.672 278.807 443.767 288.181L445.135 321.585C445.135 321.585 467 334.264 485.456 319.038L481.284 287.981C481.284 287.981 488.261 273.572 482.853 268.218L484.607 253.676Z" fill="#3F3D56"/>
<path d="M478.765 343.334C478.765 343.334 475.121 335.666 469.034 339.342C462.948 343.018 451.749 349.123 451.749 349.123C451.749 349.123 449.13 353.501 454.85 352.35C460.569 351.198 478.942 350.3 478.942 350.3L478.765 343.334Z" fill="#9E616A"/>
<path d="M473.057 317.998H450.23C449.655 317.998 449.104 317.77 448.698 317.364C448.292 316.958 448.064 316.407 448.064 315.832L447.058 285.964C447.058 285.39 447.286 284.839 447.692 284.432C448.099 284.026 448.65 283.798 449.224 283.798H474.063C474.637 283.798 475.188 284.026 475.594 284.432C476.001 284.839 476.229 285.39 476.229 285.964L475.223 315.832C475.223 316.407 474.995 316.958 474.588 317.364C474.182 317.77 473.631 317.998 473.057 317.998V317.998Z" fill="white"/>
<path d="M461.643 294.863C462.754 294.863 463.655 293.962 463.655 292.851C463.655 291.74 462.754 290.839 461.643 290.839C460.532 290.839 459.632 291.74 459.632 292.851C459.632 293.962 460.532 294.863 461.643 294.863Z" fill="#6C63FF"/>
<path d="M462.271 306.11C461.92 305.394 461.416 304.764 460.795 304.264C460.174 303.764 459.451 303.406 458.676 303.216C457.902 303.026 457.095 303.008 456.313 303.163C455.531 303.318 454.793 303.643 454.15 304.114L443.491 297.655L437.986 303.175L453.167 312.085C454.03 313.113 455.241 313.788 456.569 313.983C457.897 314.177 459.251 313.878 460.373 313.142C461.495 312.405 462.309 311.282 462.658 309.986C463.008 308.69 462.871 307.311 462.271 306.11H462.271Z" fill="#9E616A"/>
<path d="M461.759 303.678C462.236 303.039 462.848 302.513 463.551 302.137C464.254 301.76 465.031 301.543 465.827 301.499C466.623 301.455 467.419 301.587 468.159 301.884C468.899 302.181 469.564 302.637 470.109 303.219L481.779 298.844L486.168 305.287L469.601 311.235C468.562 312.085 467.247 312.524 465.906 312.47C464.564 312.415 463.29 311.871 462.323 310.939C461.356 310.008 460.765 308.754 460.661 307.416C460.557 306.077 460.948 304.747 461.759 303.678H461.759Z" fill="#9E616A"/>
<path d="M483.346 253.546C483.346 253.546 490.923 252.03 492.944 258.597C494.964 265.163 505.066 289.409 502.036 292.945C499.005 296.481 487.892 306.079 484.356 308.099C480.82 310.12 479.305 310.12 479.305 310.12L474.759 312.14L473.244 300.522L478.428 297.451L486.377 290.925L481.831 277.286L483.346 253.546Z" fill="#3F3D56"/>
<path d="M441.345 253.76C441.345 253.76 433.768 252.245 431.748 258.812C429.727 265.378 419.625 289.624 422.655 293.16C425.686 296.696 436.799 306.293 440.335 308.314C443.871 310.334 445.386 310.334 445.386 310.334L449.932 312.355L451.448 300.737L446.263 297.666L438.314 291.14L445.639 273.208L441.345 253.76Z" fill="#3F3D56"/>
<path d="M462.461 244.628C472.104 244.628 479.921 236.811 479.921 227.167C479.921 217.524 472.104 209.707 462.461 209.707C452.818 209.707 445 217.524 445 227.167C445 236.811 452.818 244.628 462.461 244.628Z" fill="#9E616A"/>
<path d="M479.83 214.396C478.662 211.853 476.581 209.843 474 208.764C471.442 207.732 468.582 207.735 466.026 208.771C463.717 207.313 461.152 206.157 458.451 206.013C455.75 205.87 452.894 206.872 451.23 209.078C450.858 209.66 450.436 210.209 449.968 210.717C448.63 211.956 446.597 211.778 444.819 211.524C445.616 212.208 446.414 212.891 447.212 213.575C446.247 213.827 445.281 214.08 444.315 214.332C445.442 215.015 446.569 215.699 447.695 216.382C444.424 218.346 442.937 222.631 443.33 226.523C443.702 230.208 445.481 233.578 447.607 236.573C448.456 234.782 448.273 232.64 448.259 230.624C448.244 228.493 448.621 226.074 450.329 224.883C451.48 224.08 452.961 224.044 454.35 224.052C461.355 224.09 468.352 224.527 475.307 225.36C476.251 225.401 477.171 225.668 477.99 226.138C479.528 227.188 479.828 229.353 479.982 231.253C480.795 228.116 481.193 224.886 481.165 221.646C481.144 219.166 480.859 216.636 479.83 214.396Z" fill="#2F2E41"/>
<path d="M342.049 380.746C342.049 380.746 345.126 388.025 350.935 384.854C356.745 381.683 367.407 376.462 367.407 376.462C367.407 376.462 370.02 372.497 364.655 373.335C359.29 374.173 342.168 374.261 342.168 374.261L342.049 380.746Z" fill="#FEB8B8"/>
<path d="M298.61 227.557C299.724 228.662 300.362 230.159 300.387 231.728C300.413 233.297 299.824 234.814 298.747 235.954C298.524 236.182 298.283 236.392 298.025 236.58L304.067 256.719L293.786 253.504L289.625 234.872C288.922 233.747 288.613 232.42 288.746 231.101C288.878 229.781 289.445 228.543 290.356 227.58C290.892 227.028 291.533 226.588 292.24 226.288C292.948 225.987 293.709 225.831 294.478 225.829C295.248 225.827 296.009 225.979 296.719 226.275C297.428 226.572 298.071 227.008 298.61 227.557V227.557Z" fill="#FFB6B6"/>
<path d="M342.264 376.539L348.723 374.262L342.82 347.709L333.287 351.069L342.264 376.539Z" fill="#FEB8B8"/>
<path d="M366.035 369.651C366.035 369.651 371.68 375.181 375.818 370.016C379.956 364.851 387.78 355.922 387.78 355.922C387.78 355.922 388.663 351.256 384.036 354.098C379.408 356.94 363.644 363.622 363.644 363.622L366.035 369.651Z" fill="#FEB8B8"/>
<path d="M364.611 365.687L369.693 361.096L354.009 338.872L346.508 345.648L364.611 365.687Z" fill="#FEB8B8"/>
<path d="M302.013 248.188L303.193 251.774L308.496 267.881C308.859 268.942 309.009 270.064 308.938 271.184C308.867 272.304 308.576 273.398 308.081 274.405C307.587 275.412 306.899 276.312 306.057 277.053C305.215 277.793 304.234 278.361 303.173 278.723C301.209 279.365 299.077 279.256 297.189 278.418L267.348 264.837C266.173 264.319 265.124 263.553 264.273 262.591C263.422 261.63 262.788 260.496 262.415 259.267C262.042 258.038 261.939 256.743 262.112 255.471C262.286 254.199 262.732 252.979 263.421 251.895C264.582 250.073 266.393 248.763 268.486 248.23C270.579 247.696 272.796 247.98 274.687 249.024L295.372 260.767L293.037 249.63L302.013 248.188Z" fill="#6C63FF"/>
<path d="M348.973 363.975L338.781 368.667L318.023 328.098C300.227 338.032 282.723 345.374 265.875 346.881C263.101 347.105 260.35 346.229 258.217 344.441C256.084 342.654 254.74 340.099 254.475 337.329C254.447 337.057 254.429 336.785 254.422 336.513C254.283 330.216 255.411 323.018 257.038 315.465L285.7 315.822L288.038 319.401L313.877 306.356C315.13 305.739 316.493 305.375 317.887 305.287C319.281 305.199 320.678 305.387 321.999 305.842C323.32 306.296 324.538 307.008 325.582 307.935C326.627 308.862 327.478 309.987 328.086 311.244C328.226 311.526 328.353 311.812 328.469 312.105L348.973 363.975Z" fill="#2F2E41"/>
<path d="M361.83 349.36L351.638 354.052L318.765 321.714C300.969 331.648 283.465 338.99 266.617 340.497C263.843 340.721 261.092 339.845 258.959 338.057C256.826 336.27 255.482 333.715 255.217 330.944C255.189 330.673 255.171 330.401 255.164 330.128C255.025 323.832 256.153 316.634 257.78 309.081L288.107 301.179L288.78 313.017L314.619 299.972C315.872 299.355 317.235 298.991 318.629 298.903C320.023 298.815 321.421 299.003 322.741 299.458C324.062 299.912 325.28 300.624 326.325 301.551C327.369 302.478 328.22 303.603 328.828 304.86C328.968 305.141 329.096 305.428 329.211 305.721L361.83 349.36Z" fill="#2F2E41"/>
<path d="M268.006 241.497C275.148 238.98 278.851 231.021 276.278 223.721C273.705 216.42 265.83 212.542 258.689 215.059C251.547 217.576 247.844 225.534 250.416 232.835C252.989 240.136 260.865 244.014 268.006 241.497Z" fill="#FFB6B6"/>
<path d="M285.779 244.825C285.734 245.107 285.799 245.394 285.961 245.628C286.123 245.862 286.37 246.024 286.649 246.08C287.01 246.001 296.983 248.378 297.003 247.696C297.118 247.613 297.216 247.508 297.289 247.387C297.363 247.266 297.412 247.131 297.433 246.991L301.883 217.903C301.907 217.744 301.896 217.581 301.851 217.426C301.806 217.271 301.727 217.128 301.62 217.007C301.759 216.249 291.531 217.134 291.144 217.058C290.902 217.068 290.67 217.162 290.49 217.325C290.309 217.487 290.191 217.707 290.155 217.947L285.779 244.825Z" fill="#3F3D56"/>
<path d="M299.823 218.049C299.823 218.049 291.197 218.605 291.296 218.465C291.08 218.531 290.543 218.375 290.518 218.739L286.436 244.312C286.101 244.957 295.681 245.878 295.83 246.081C296.625 246.261 299.817 218.638 300.129 218.392C300.141 218.315 300.122 218.236 300.076 218.173C300.031 218.109 299.962 218.066 299.885 218.052C299.865 218.049 299.844 218.048 299.823 218.049Z" fill="#6C63FF"/>
<path d="M277.813 246.24C277.826 245.904 277.793 245.568 277.717 245.24C277.5 244.283 276.914 243.45 276.086 242.923C275.258 242.396 274.256 242.218 273.297 242.428L267.047 243.871C266.576 243.985 266.132 244.191 265.741 244.477C265.35 244.763 265.019 245.124 264.767 245.538C264.516 245.952 264.349 246.412 264.276 246.891C264.204 247.371 264.226 247.859 264.343 248.33C264.539 249.168 265.015 249.914 265.692 250.445C262.729 251.87 260.248 254.131 258.556 256.95C256.863 259.768 256.033 263.02 256.168 266.305C254.119 279.438 254.343 293.712 257.662 309.545L288.817 312.813L291.32 287.489L292.234 283.559C292.483 282.995 292.715 282.437 292.924 281.88C294.19 278.756 294.921 275.442 295.085 272.076C295.18 269.671 294.886 267.267 294.215 264.956C292.068 257.565 286.109 251.499 277.813 246.24Z" fill="#6C63FF"/>
<path opacity="0.2" d="M295.085 272.076C294.921 275.442 294.19 278.756 292.924 281.88C292.715 282.437 292.483 282.995 292.234 283.559L291.32 287.489C281.788 284.495 267.835 264.394 267.835 264.394L275.76 259.74L295.085 272.076Z" fill="black"/>
<path d="M288.094 235.806C287.8 237.348 288.119 238.944 288.984 240.255C289.849 241.565 291.191 242.486 292.724 242.822C293.037 242.886 293.355 242.923 293.674 242.934L300.057 262.969L306.737 254.54L299.651 236.807C299.594 235.481 299.1 234.211 298.245 233.195C297.391 232.179 296.224 231.475 294.927 231.192C294.175 231.035 293.398 231.031 292.644 231.179C291.89 231.328 291.173 231.626 290.536 232.056C289.899 232.486 289.355 233.04 288.935 233.684C288.516 234.328 288.23 235.05 288.094 235.806V235.806Z" fill="#FFB6B6"/>
<path d="M296.666 255.752L306.579 253.768L313.062 273.459C313.53 274.862 313.631 276.361 313.357 277.814C313.082 279.267 312.44 280.626 311.493 281.761C310.332 283.139 308.754 284.102 306.998 284.506C305.242 284.909 303.402 284.731 301.757 283.998L271.915 270.415C269.823 269.48 268.169 267.779 267.292 265.662C266.416 263.544 266.384 261.172 267.204 259.031C267.607 257.967 268.221 256.995 269.007 256.173C269.794 255.35 270.738 254.694 271.783 254.243C272.828 253.793 273.953 253.557 275.091 253.549C276.229 253.541 277.357 253.762 278.408 254.199C278.698 254.318 278.981 254.453 279.256 254.603L299.938 266.346L296.666 255.752Z" fill="#6C63FF"/>
<path d="M269.314 209.335C265.978 208.683 262.614 209.864 259.44 211.028C257.141 211.872 254.842 212.715 252.543 213.558C249.752 214.582 246.821 215.704 244.962 218.047C243.103 220.39 242.876 224.36 245.288 226.174C239.131 223.662 231.876 225.479 226.722 229.605C224.129 231.589 222.129 234.245 220.939 237.285C219.728 240.62 219.797 244.339 220.532 247.841C221.266 251.343 222.636 254.676 223.999 257.986C224.855 260.067 225.938 262.373 228.032 263.111C229.964 263.792 232.106 262.832 233.572 261.415C236.129 258.945 237.205 255.276 237.719 251.71C238.234 248.144 238.294 244.482 239.281 241.027C240.269 237.572 242.413 234.217 245.74 233C244.629 237.095 245.902 242.029 249.41 244.411C251.933 246.123 255.205 246.321 258.132 245.632C261.059 244.944 263.725 243.459 266.35 241.99C268.128 240.996 270.142 239.61 270.115 237.534C270.088 235.499 268.123 234.126 266.913 232.489C264.576 229.328 265.315 224.306 268.448 222.054L268.064 221.873C271.102 221.266 274.431 219.663 275.077 216.584C275.782 213.222 272.65 209.987 269.314 209.335Z" fill="#2F2E41"/>
<path d="M274.205 350.828C271.216 350.826 268.254 350.261 265.475 349.161C262.688 348.087 260.142 346.472 257.984 344.408C255.825 342.344 254.097 339.873 252.899 337.137L235.714 297.644C230.773 286.29 236.311 273.166 248.058 268.39L248.35 268.272L283.456 348.95L283.164 349.068C280.319 350.228 277.277 350.826 274.205 350.828V350.828Z" fill="#3F3D56"/>
<path d="M524.99 346.962C522.394 346.961 519.825 346.441 517.433 345.432L517.187 345.328L546.892 274.701L547.139 274.805C551.916 276.821 555.699 280.649 557.657 285.45C559.615 290.251 559.589 295.633 557.584 300.414L543.043 334.987C541.545 338.537 539.034 341.567 535.822 343.697C532.611 345.827 528.843 346.963 524.99 346.962V346.962Z" fill="#3F3D56"/>
<path d="M163.894 309.745H37.0245V320.695H39.2901V420H52.128V320.695H149.545V420H162.383V320.695H163.894V309.745Z" fill="#3F3D56"/>
<path d="M35.0127 270.307C35.0362 270.15 35.0925 270 35.1779 269.866C35.2633 269.732 35.3758 269.618 35.5082 269.531L75.361 243.221C74.7604 242.971 74.2582 242.531 73.9307 241.968C73.5326 241.274 73.4251 240.45 73.6323 239.677C73.8395 238.904 74.3442 238.244 75.0362 237.842L78.3061 235.954C79.0004 235.556 79.8241 235.448 80.5973 235.656C81.3704 235.863 82.0301 236.368 82.4323 237.06C82.6497 237.44 82.7804 237.864 82.815 238.3L111.582 219.309C112.549 216.969 114.013 214.868 115.875 213.152C117.736 211.436 119.949 210.147 122.359 209.374V201H132.932V209.374C136.439 210.495 139.5 212.702 141.672 215.677C143.843 218.651 145.014 222.238 145.014 225.921V228.186H134.442C134.442 229.989 133.726 231.718 132.451 232.992C131.177 234.267 129.448 234.983 127.645 234.983C125.843 234.983 124.114 234.267 122.839 232.992C121.565 231.718 120.849 229.989 120.849 228.186H110.276V225.921C110.277 224.835 110.38 223.751 110.582 222.684L37.8066 270.728L68.0372 307.483C68.272 307.482 68.5054 307.479 68.7418 307.479C71.1537 307.479 73.4908 307.536 75.7176 307.635C75.5832 307.261 75.5246 306.865 75.545 306.469C75.589 305.67 75.9475 304.92 76.5421 304.385C77.1368 303.849 77.9193 303.57 78.7187 303.609L82.4894 303.806C83.2887 303.85 84.038 304.208 84.5738 304.803C85.1096 305.398 85.3883 306.18 85.349 306.98C85.3211 307.452 85.1808 307.911 84.9397 308.318C91.6072 309.026 95.928 310.003 95.928 310.5C95.928 311.314 84.3261 310.539 69.8049 310.502C69.7383 310.691 69.6226 310.859 69.4699 310.988C69.3171 311.117 69.1326 311.204 68.9354 311.238C68.7382 311.273 68.5353 311.255 68.3476 311.185C68.1599 311.115 67.9941 310.997 67.8672 310.842L67.5873 310.502C53.1088 310.542 41.5556 311.313 41.5556 310.5C41.5556 309.734 51.8275 307.828 65.1367 307.522L35.2575 271.195C35.1568 271.073 35.0829 270.93 35.0407 270.777C34.9986 270.624 34.989 270.464 35.0127 270.307Z" fill="#C6C6C6"/>
<path d="M137.589 307.744V256.101C137.589 254.568 139.96 253.32 142.875 253.32C145.79 253.32 148.161 254.568 148.161 256.101V307.744C148.161 309.277 145.79 310.525 142.875 310.525C139.96 310.525 137.589 309.277 137.589 307.744Z" fill="#F58220"/>
<path d="M124.94 307.744V256.101C124.94 254.568 127.311 253.32 130.226 253.32C133.141 253.32 135.512 254.568 135.512 256.101V307.744C135.512 309.277 133.141 310.525 130.226 310.525C127.311 310.525 124.94 309.277 124.94 307.744Z" fill="#C6C6C6"/>
<path d="M112.291 307.744V256.101C112.291 254.568 114.662 253.32 117.577 253.32C120.492 253.32 122.863 254.568 122.863 256.101V307.744C122.863 309.277 120.492 310.525 117.577 310.525C114.662 310.525 112.291 309.277 112.291 307.744Z" fill="#F58220"/>
</svg>
