<svg width="841" height="642" viewBox="0 0 841 642" fill="none" xmlns="http://www.w3.org/2000/svg">
<g clip-path="url(#clip0_1_49)">
<path d="M117.85 622.624C117.321 622.648 116.799 622.512 116.352 622.234C115.905 621.955 115.556 621.549 115.352 621.069C115.148 620.589 115.099 620.059 115.211 619.551C115.324 619.042 115.592 618.581 115.981 618.227L116.157 617.536C116.134 617.481 116.111 617.426 116.087 617.37C115.555 616.134 114.663 615.08 113.524 614.34C112.385 613.601 111.049 613.209 109.684 613.214C108.32 613.219 106.987 613.621 105.853 614.369C104.72 615.116 103.836 616.177 103.313 617.417C101.224 622.367 98.5641 627.326 97.9091 632.56C97.6207 634.873 97.7424 637.218 98.2688 639.491C93.3617 628.961 90.8136 617.516 90.7972 605.932C90.7962 603.025 90.9604 600.121 91.289 597.232C91.5605 594.864 91.9373 592.512 92.4193 590.178C95.0494 577.511 100.696 565.639 108.896 555.536C112.865 553.406 116.075 550.13 118.092 546.15C118.824 544.719 119.34 543.192 119.626 541.616C119.179 541.673 117.938 534.966 118.276 534.554C117.652 533.623 116.535 533.16 115.854 532.251C112.465 527.731 107.796 528.52 105.359 534.663C100.152 537.248 100.101 541.535 103.296 545.659C105.329 548.282 105.608 551.832 107.392 554.641C107.208 554.872 107.017 555.095 106.834 555.327C103.48 559.569 100.556 564.125 98.1056 568.929C98.7016 563.547 97.9903 558.104 96.0303 553.045C94.0437 548.331 90.3203 544.36 87.0414 540.285C86.1742 539.19 84.9964 538.373 83.6571 537.936C82.3178 537.5 80.877 537.464 79.5168 537.832C78.1567 538.201 76.9382 538.959 76.0155 540.009C75.0927 541.059 74.5071 542.354 74.3327 543.731C74.326 543.791 74.3194 543.852 74.313 543.912C74.8001 544.182 75.2768 544.469 75.7432 544.772C76.3292 545.157 76.7833 545.708 77.0459 546.351C77.3085 546.994 77.3675 547.701 77.215 548.378C77.0626 549.055 76.7059 549.67 76.1916 550.144C75.6773 550.618 75.0294 550.929 74.3329 551.034L74.2616 551.045C74.4351 552.772 74.7418 554.483 75.179 556.164C70.9725 572.167 80.0539 577.996 93.021 578.257C93.3072 578.402 93.5862 578.546 93.8724 578.683C91.4102 585.548 89.8658 592.698 89.278 599.954C88.9452 604.235 88.9648 608.535 89.3367 612.813L89.3147 612.661C88.3751 607.904 85.7957 603.612 82.0119 600.51C76.3921 595.968 68.4523 594.296 62.3895 590.645C61.7452 590.238 60.996 590.021 60.2303 590.019C59.4646 590.017 58.7143 590.231 58.068 590.635C57.4216 591.039 56.9062 591.616 56.5824 592.299C56.2586 592.981 56.14 593.741 56.2406 594.488L56.2654 594.647C57.1692 595.009 58.0492 595.426 58.9002 595.896C59.3872 596.166 59.864 596.453 60.3304 596.757C60.9164 597.142 61.3705 597.692 61.6331 598.335C61.8958 598.979 61.9547 599.685 61.8023 600.362C61.6498 601.039 61.2931 601.655 60.7788 602.129C60.2646 602.603 59.6167 602.913 58.9202 603.019L58.8488 603.029C58.7974 603.037 58.7533 603.044 58.7021 603.051C60.2463 606.678 62.4137 610.017 65.1093 612.921C67.7395 626.891 79.0362 628.216 91.1201 624.148H91.1275C92.4533 629.816 94.3744 635.333 96.8596 640.61H117.336C117.41 640.386 117.476 640.155 117.542 639.931C115.647 640.048 113.744 639.937 111.876 639.599C113.395 637.765 114.914 635.917 116.434 634.083C116.468 634.049 116.5 634.012 116.529 633.975C117.3 633.036 118.078 632.105 118.848 631.166L118.849 631.165C118.89 628.288 118.554 625.418 117.85 622.625L117.85 622.624Z" fill="#F2F2F2"/>
<path d="M798.731 -1H26.0709C18.8939 -0.991903 12.0133 1.68298 6.93843 6.43791C1.86352 11.1928 -0.991358 17.6396 -1 24.3641V465.491C-0.991358 472.215 1.86352 478.662 6.93843 483.417C12.0133 488.172 18.8939 490.847 26.0709 490.855H798.731C805.908 490.847 812.789 488.172 817.864 483.417C822.939 478.662 825.794 472.215 825.802 465.491V24.3641C825.794 17.6396 822.939 11.1928 817.864 6.43791C812.789 1.68298 805.908 -0.9919 798.731 -1ZM823.416 465.491C823.416 468.528 822.778 471.536 821.537 474.342C820.297 477.148 818.478 479.698 816.186 481.845C813.894 483.993 811.173 485.696 808.178 486.859C805.183 488.021 801.973 488.619 798.731 488.619H26.0709C19.5241 488.619 13.2454 486.183 8.61615 481.845C3.98686 477.508 1.38615 471.625 1.38615 465.491V175.258C1.38615 152.405 6.19027 129.776 15.5242 108.663C24.8582 87.5492 38.5392 68.3651 55.7861 52.2056C73.033 36.0462 93.508 23.2278 116.042 14.4824C138.576 5.73692 162.728 1.2357 187.119 1.2357H798.731C801.973 1.2357 805.183 1.83394 808.178 2.99625C811.173 4.15856 813.894 5.86218 816.186 8.00985C818.478 10.1575 820.297 12.7072 821.537 15.5132C822.778 18.3193 823.416 21.3268 823.416 24.3641V465.491Z" fill="#6C63FF"/>
<path d="M752.809 374.298H398.906C395.233 374.294 391.71 372.925 389.113 370.491C386.515 368.057 385.054 364.757 385.05 361.315V253.626C385.054 250.184 386.515 246.884 389.113 244.45C391.71 242.016 395.233 240.647 398.906 240.643H752.809C756.482 240.647 760.004 242.016 762.602 244.45C765.2 246.884 766.661 250.184 766.665 253.626V361.315C766.661 364.757 765.2 368.057 762.602 370.491C760.004 372.925 756.482 374.294 752.809 374.298Z" fill="#E6E6E6"/>
<path d="M200.991 70.2155C206.685 70.2155 211.301 65.794 211.301 60.3398C211.301 54.8856 206.685 50.4641 200.991 50.4641C195.296 50.4641 190.68 54.8856 190.68 60.3398C190.68 65.794 195.296 70.2155 200.991 70.2155Z" fill="#F58220"/>
<path d="M165.372 70.2155C171.067 70.2155 175.683 65.794 175.683 60.3398C175.683 54.8856 171.067 50.4641 165.372 50.4641C159.678 50.4641 155.062 54.8856 155.062 60.3398C155.062 65.794 159.678 70.2155 165.372 70.2155Z" fill="#F58220"/>
<path d="M129.755 70.2155C135.449 70.2155 140.065 65.794 140.065 60.3398C140.065 54.8856 135.449 50.4641 129.755 50.4641C124.06 50.4641 119.444 54.8856 119.444 60.3398C119.444 65.794 124.06 70.2155 129.755 70.2155Z" fill="#F58220"/>
<path d="M652.415 175.17H508.214C505.834 175.17 503.552 174.284 501.87 172.708C500.187 171.131 499.242 168.993 499.242 166.764C499.242 164.534 500.187 162.396 501.87 160.819C503.552 159.243 505.834 158.357 508.214 158.357H652.415C654.795 158.357 657.077 159.243 658.759 160.819C660.442 162.396 661.387 164.534 661.387 166.764C661.387 168.993 660.442 171.131 658.759 172.708C657.077 174.284 654.795 175.17 652.415 175.17Z" fill="#E6E6E6"/>
<path d="M758.45 204.112H507.544C505.219 204.112 502.989 203.229 501.344 201.657C499.7 200.084 498.776 197.952 498.776 195.728C498.776 193.505 499.7 191.372 501.344 189.8C502.989 188.228 505.219 187.345 507.544 187.345H758.45C760.776 187.345 763.006 188.228 764.65 189.8C766.295 191.372 767.218 193.505 767.218 195.728C767.218 197.952 766.295 200.084 764.65 201.657C763.006 203.229 760.776 204.112 758.45 204.112Z" fill="#E6E6E6"/>
<path d="M136.454 628.437L148.491 628.436L154.217 584.935L136.452 584.936L136.454 628.437Z" fill="#FFB6B6"/>
<path d="M136.03 640.202L173.045 640.201V639.762C173.045 636.182 171.527 632.749 168.825 630.218C166.123 627.686 162.459 626.264 158.638 626.264H158.637L151.876 621.458L139.261 626.264L136.029 626.264L136.03 640.202Z" fill="#2F2E41"/>
<path d="M66.8727 628.437L78.9097 628.436L84.6353 584.935L66.8704 584.936L66.8727 628.437Z" fill="#FFB6B6"/>
<path d="M66.4485 640.202L103.464 640.201V639.762C103.463 636.182 101.945 632.749 99.2435 630.218C96.5416 627.686 92.8772 626.264 89.0563 626.264H89.0554L82.2941 621.458L69.6791 626.264L66.4479 626.264L66.4485 640.202Z" fill="#2F2E41"/>
<path d="M217.534 339.606L176.523 303.571L187.631 286.137L228.077 329.474C230.478 329.248 232.894 329.719 234.999 330.824C237.103 331.928 238.794 333.613 239.841 335.649C240.889 337.685 241.242 339.974 240.854 342.205C240.465 344.435 239.354 346.5 237.67 348.118C235.986 349.737 233.811 350.83 231.441 351.251C229.07 351.671 226.62 351.398 224.421 350.469C222.222 349.539 220.381 347.998 219.149 346.055C217.917 344.112 217.353 341.86 217.534 339.607V339.606Z" fill="#FFB6B6"/>
<path d="M55.0961 392.07C55.0961 392.07 50.0048 435.003 61.036 475.55L56.8812 495.151L66.1273 607.529H88.5706L104.312 422.282L133.698 607.529H157.27L154.377 505.762L164.58 407.971L160.317 385.709L55.0961 392.07Z" fill="#2F2E41"/>
<path d="M117.115 224.806H67.0054L58.5782 244.881L60.6117 403.598C60.6117 403.598 159.893 403.598 166.681 397.238L145.467 328.068L137.83 239.817L117.115 224.806Z" fill="#6C63FF"/>
<path d="M144.618 239.022L180.258 274.8L192.986 282.75L196.38 293.086L181.955 316.143L165.832 310.577L160.742 293.086L130.824 270.17L127.647 233.457L144.618 239.022Z" fill="#2F2E41"/>
<path d="M112.443 225.942L118.307 249.399L126.375 333.236L137.406 396.84H169.23L150.134 327.671L142.497 238.625L117.04 224.314L112.443 225.942Z" fill="#2F2E41"/>
<path d="M71.5723 225.942L80.5526 252.936L94.9781 341.982L72.9157 405.585L51.4952 405.898L45.9211 386.167L58.4902 335.621L41.5187 238.625L66.9754 224.314L71.5723 225.942Z" fill="#2F2E41"/>
<path d="M90.1139 216.857C106.889 216.857 120.487 204.116 120.487 188.399C120.487 172.682 106.889 159.94 90.1139 159.94C73.3392 159.94 59.7406 172.682 59.7406 188.399C59.7406 204.116 73.3392 216.857 90.1139 216.857Z" fill="#FFB6B6"/>
<path d="M72.5915 202.486C72.5915 202.486 71.1326 204.56 73.9492 213.356L61.0359 203.642L59.6234 192.975C59.6234 192.975 53.0512 170.983 75.5844 160.426C75.5844 160.426 95.301 150.75 114.079 164.825C114.079 164.825 121.59 165.705 120.651 166.584C119.712 167.464 115.018 170.103 119.712 169.223C124.406 168.344 127.223 163.945 127.223 166.584C127.223 169.223 118.773 175.381 118.773 175.381C118.773 175.381 122.059 183.738 99.526 172.302C97.1158 177.948 92.4726 182.504 86.5647 185.02L87.2876 185.681L81.6871 196.934C81.6871 196.934 75.8776 189.731 72.5915 202.486Z" fill="#2F2E41"/>
<path d="M74.9753 424.553L177.022 208.968C178.084 206.731 180.05 204.98 182.488 204.1C184.926 203.219 187.637 203.281 190.026 204.271L264.753 235.322C267.14 236.317 269.009 238.159 269.948 240.443C270.888 242.727 270.823 245.268 269.766 247.507L167.72 463.092C166.658 465.329 164.692 467.08 162.254 467.96C159.816 468.841 157.105 468.78 154.715 467.79L79.9889 436.738C77.6016 435.743 75.733 433.901 74.7931 431.617C73.8533 429.333 73.9188 426.792 74.9753 424.553Z" fill="white"/>
<path d="M186.522 336.403C207.611 336.403 224.707 320.385 224.707 300.625C224.707 280.866 207.611 264.848 186.522 264.848C165.433 264.848 148.337 280.866 148.337 300.625C148.337 320.385 165.433 336.403 186.522 336.403Z" fill="#CCCCCC"/>
<path d="M167.945 375.649C189.034 375.649 206.13 359.631 206.13 339.871C206.13 320.112 189.034 304.094 167.945 304.094C146.856 304.094 129.76 320.112 129.76 339.871C129.76 359.631 146.856 375.649 167.945 375.649Z" fill="#3F3D56"/>
<path d="M133.887 411.823C129.303 409.918 125.164 407.186 121.707 403.783C118.25 400.379 115.543 396.371 113.739 391.987C111.935 387.603 111.071 382.93 111.195 378.233C111.319 373.536 112.429 368.908 114.462 364.613C116.495 360.318 119.411 356.44 123.043 353.201C126.676 349.962 130.953 347.425 135.632 345.735C140.311 344.045 145.299 343.235 150.312 343.351C155.325 343.467 160.265 344.508 164.849 346.412C184.127 354.423 205.266 395.51 184.274 393.622C160.234 391.461 153.165 419.834 133.887 411.823Z" fill="#6C63FF"/>
<path d="M82.5266 390.598L52.6885 320.941L76.55 325.413L96.4637 385.145C98.7667 385.818 100.793 387.138 102.268 388.927C103.742 390.716 104.593 392.886 104.706 395.144C104.819 397.402 104.187 399.637 102.897 401.547C101.607 403.457 99.7208 404.949 97.4948 405.82C95.2688 406.691 92.8106 406.899 90.454 406.416C88.0974 405.933 85.9565 404.782 84.3219 403.12C82.6873 401.458 81.6382 399.364 81.3171 397.124C80.9959 394.884 81.4182 392.606 82.5266 390.598L82.5266 390.598Z" fill="#FFB6B6"/>
<path d="M34.2131 255.618C32.4762 273.574 36.0736 289.34 42.5256 303.933L43.3542 316.914L49.9873 325.764L78.2718 329.224L83.4651 313.878L71.8396 299.385L70.8622 263.191L41.8564 238.329L34.2131 255.618Z" fill="#2F2E41"/>
<path d="M307.003 639.67C307.004 639.845 306.968 640.018 306.897 640.179C306.825 640.341 306.721 640.488 306.589 640.611C306.457 640.735 306.3 640.833 306.128 640.9C305.955 640.966 305.77 641 305.584 641H3.38924C3.0127 641 2.65158 640.86 2.38532 640.61C2.11906 640.361 1.96948 640.023 1.96948 639.67C1.96948 639.317 2.11906 638.979 2.38532 638.729C2.65158 638.48 3.0127 638.339 3.38924 638.339H305.584C305.77 638.339 305.955 638.373 306.128 638.44C306.3 638.506 306.457 638.604 306.589 638.728C306.721 638.852 306.825 638.998 306.897 639.16C306.968 639.322 307.004 639.495 307.003 639.67Z" fill="#CCCCCC"/>
<path d="M74.9753 424.553L177.022 208.968C178.084 206.731 180.05 204.98 182.488 204.1C184.926 203.219 187.637 203.281 190.026 204.271L264.753 235.322C267.14 236.317 269.009 238.159 269.948 240.443C270.888 242.727 270.823 245.268 269.766 247.507L167.72 463.092C166.658 465.329 164.692 467.08 162.254 467.96C159.816 468.841 157.105 468.78 154.715 467.79L79.9889 436.738C77.6016 435.743 75.733 433.901 74.7931 431.617C73.8533 429.333 73.9188 426.792 74.9753 424.553ZM268.181 246.848C269.052 245.003 269.106 242.91 268.331 241.027C267.557 239.145 266.017 237.628 264.05 236.808L189.323 205.756C187.354 204.94 185.12 204.89 183.111 205.615C181.102 206.341 179.482 207.784 178.607 209.627L76.5607 425.212C75.69 427.057 75.636 429.15 76.4105 431.033C77.185 432.915 78.7247 434.433 80.692 435.253L155.418 466.304C157.387 467.12 159.622 467.171 161.631 466.445C163.64 465.719 165.259 464.277 166.134 462.433L268.181 246.848Z" fill="#3F3D56"/>
<path d="M624.806 350.3C625.297 350.635 625.759 351.005 626.188 351.408L679.614 341.535L683.906 329.811L703.638 333.568L698.192 355.015C697.752 356.748 696.724 358.3 695.262 359.439C693.801 360.578 691.984 361.241 690.086 361.33L628.211 364.235C627.092 366.161 625.374 367.723 623.285 368.712C621.196 369.702 618.835 370.071 616.516 369.773C614.197 369.474 612.031 368.521 610.304 367.04C608.577 365.56 607.373 363.622 606.85 361.484C606.328 359.346 606.513 357.11 607.38 355.073C608.247 353.036 609.755 351.295 611.705 350.081C613.654 348.866 615.951 348.237 618.292 348.276C620.632 348.315 622.904 349.021 624.806 350.3Z" fill="#FFB7B7"/>
<path d="M678.313 339.216C677.962 338.638 677.748 337.995 677.687 337.333C677.625 336.67 677.717 336.002 677.956 335.376L686.295 313.493C687.001 310.154 689.091 307.214 692.107 305.317C695.123 303.419 698.819 302.72 702.384 303.372C705.95 304.024 709.094 305.973 711.127 308.794C713.161 311.614 713.918 315.075 713.232 318.417L712.025 341.701C711.99 342.366 711.803 343.016 711.477 343.606C711.15 344.197 710.691 344.715 710.132 345.124C709.572 345.534 708.925 345.826 708.234 345.98C707.544 346.134 706.826 346.147 706.129 346.018L681.649 341.473C680.953 341.344 680.294 341.075 679.718 340.686C679.142 340.296 678.663 339.795 678.313 339.216Z" fill="#6C63FF"/>
<path d="M664.914 623.029L649.207 623.028L641.734 566.264L664.916 566.265L664.914 623.029Z" fill="#FFB7B7"/>
<path d="M668.919 637.294L618.274 637.292V636.692C618.274 631.793 620.351 627.096 624.048 623.632C627.745 620.169 632.759 618.223 637.987 618.222H637.988L668.92 618.224L668.919 637.294Z" fill="#2F2E41"/>
<path d="M813.651 607.605L799.105 613.154L769.339 563.22L790.81 555.031L813.651 607.605Z" fill="#FFB7B7"/>
<path d="M823.103 619.402L776.196 637.294L775.954 636.738C773.983 632.201 774.016 627.116 776.046 622.602C778.076 618.088 781.937 614.515 786.778 612.667L786.78 612.667L815.429 601.739L823.103 619.402Z" fill="#2F2E41"/>
<path d="M679.204 387.321L671.977 351.495C670.406 346.22 670.127 340.68 671.161 335.29C672.195 329.9 674.516 324.798 677.949 320.366L704.369 287.269L729.604 287.964C741.536 315.057 743.733 345.053 735.863 373.42L731.224 390.138C752.027 407.718 765.974 457.009 778.669 512.089L813.472 584.205L753.596 601.237L714.803 495.476L680.15 602.024L629.407 600.2L668.001 435.389L679.204 387.321Z" fill="#2F2E41"/>
<path d="M719.411 280.579C733.006 280.579 744.028 270.253 744.028 257.514C744.028 244.776 733.006 234.45 719.411 234.45C705.815 234.45 694.793 244.776 694.793 257.514C694.793 270.253 705.815 280.579 719.411 280.579Z" fill="#FFB7B7"/>
<path d="M816.58 309.902C812.006 301.532 810.445 292.027 806.925 283.221C803.405 274.415 797.01 265.678 787.314 263.251C781.814 261.874 775.97 262.715 770.32 262.059C765.353 261.483 760.004 259.107 758.102 254.973C758.485 250.876 757.938 246.748 756.499 242.862C752.956 233.428 744.505 225.981 734.653 222.131C726.65 219.003 717.434 218.12 709.262 220.836C701.09 223.552 694.23 230.189 692.761 238.196C691.291 246.203 696.002 255.144 704.124 257.988C709.956 260.03 717.466 259.35 721.274 263.965C725.132 268.64 722.367 275.453 718.863 280.367L719.102 280.595C730.546 280.721 742.916 278.649 750.797 270.875C751.653 270.026 752.44 269.119 753.152 268.161C753.393 268.523 753.646 268.877 753.918 269.215C757.887 274.154 764.101 276.955 770.02 279.684C775.941 282.413 782.08 285.476 785.636 290.684C792.061 300.094 787.843 312.768 791.518 323.395C793.153 328.126 796.307 332.269 800.548 335.259C804.79 338.249 809.912 339.939 815.217 340.101C820.522 340.262 825.751 338.886 830.19 336.16C834.63 333.434 838.063 329.491 840.022 324.869C830.021 325.652 821.153 318.272 816.58 309.902Z" fill="#2F2E41"/>
<path d="M578.013 368.924L579.055 345.223L614.782 278.669C615.789 276.777 617.431 275.247 619.457 274.314C620.697 273.734 622.048 273.392 623.431 273.307C624.814 273.223 626.201 273.397 627.512 273.821C629.029 274.311 630.405 275.123 631.533 276.194C632.66 277.264 633.508 278.564 634.011 279.993C634.227 280.609 634.378 281.244 634.464 281.888C634.718 283.799 634.357 285.738 633.428 287.456L597.653 354.1L578.013 368.924Z" fill="#6C63FF"/>
<path d="M623.906 273.754L585.125 345.999L582.168 344.605L619.676 274.731C620.991 274.115 622.436 273.781 623.906 273.754Z" fill="#3F3D56"/>
<path d="M633.971 281.947L596.668 351.438L593.711 350.045L632.412 277.95C632.888 278.63 633.267 279.366 633.54 280.139C633.745 280.727 633.889 281.333 633.971 281.947Z" fill="#3F3D56"/>
<path d="M630.257 275.746L591.047 348.789L588.09 347.396L627.349 274.261C627.768 274.395 628.176 274.556 628.571 274.743C629.167 275.024 629.732 275.36 630.257 275.746Z" fill="#3F3D56"/>
<path d="M582.499 364.942L578.553 367.919L578.884 360.069C580.239 360.51 581.705 362.42 582.499 364.942Z" fill="#3F3D56"/>
<path d="M623.18 290.329C623.314 290.884 623.402 291.449 623.442 292.017L670.611 317.512L682.076 311.328L694.299 326.32L675.137 339.116C673.59 340.15 671.725 340.685 669.825 340.642C667.925 340.599 666.091 339.979 664.598 338.876L615.959 302.923C613.764 303.685 611.374 303.802 609.106 303.259C606.838 302.716 604.8 301.54 603.264 299.885C601.727 298.231 600.764 296.178 600.504 293.998C600.243 291.819 600.696 289.617 601.804 287.685C602.912 285.753 604.621 284.183 606.704 283.183C608.788 282.183 611.146 281.802 613.467 282.089C615.787 282.376 617.959 283.318 619.695 284.79C621.43 286.262 622.645 288.194 623.18 290.329Z" fill="#FFB7B7"/>
<path d="M671.259 314.964C671.401 314.312 671.692 313.697 672.111 313.16C672.53 312.622 673.067 312.176 673.687 311.852L695.333 300.512C698.209 298.432 701.847 297.505 705.451 297.935C709.055 298.365 712.33 300.117 714.557 302.806C716.785 305.494 717.784 308.901 717.335 312.279C716.886 315.657 715.026 318.73 712.162 320.824L694.904 337.616C694.411 338.095 693.814 338.469 693.153 338.712C692.493 338.956 691.784 339.063 691.075 339.027C690.366 338.99 689.673 338.811 689.045 338.502C688.416 338.192 687.867 337.759 687.433 337.232L672.188 318.72C671.754 318.193 671.446 317.585 671.286 316.937C671.126 316.289 671.117 315.616 671.259 314.964Z" fill="#6C63FF"/>
<path d="M487.915 131.887H384.034V232.082H487.915V131.887Z" fill="#E6E6E6"/>
<path d="M435.272 147.713C430.711 140.013 421.689 139.654 421.689 139.654C421.689 139.654 412.897 138.531 407.256 150.258C401.999 161.189 394.744 171.742 406.089 174.302L408.139 167.929L409.408 174.776C411.023 174.892 412.643 174.92 414.262 174.859C426.411 174.468 437.981 174.974 437.608 170.619C437.112 164.827 439.66 155.122 435.272 147.713Z" fill="#2F2E41"/>
<path d="M404.138 220.833L388.757 231.504C388.757 231.504 379.785 240.896 386.194 240.896C392.603 240.896 395.166 232.785 395.166 232.785L414.819 224.247L404.138 220.833Z" fill="#FFB8B8"/>
<path d="M410.333 179.209C410.333 179.209 396.875 220.834 401.147 222.968C405.419 225.101 414.819 226.383 414.819 226.383L410.333 179.209Z" fill="#D97927"/>
<path opacity="0.1" d="M410.333 179.209C410.333 179.209 396.875 220.834 401.147 222.968C405.419 225.101 414.819 226.383 414.819 226.383L410.333 179.209Z" fill="#F58220"/>
<path d="M452.643 231.72H422.347L443.871 220.834C444.346 221.142 444.801 221.478 445.234 221.842C448.426 224.526 450.96 227.906 452.643 231.72Z" fill="#2F2E41"/>
<path d="M418.878 168.535C425.013 168.535 429.986 163.565 429.986 157.435C429.986 151.305 425.013 146.336 418.878 146.336C412.743 146.336 407.77 151.305 407.77 157.435C407.77 163.565 412.743 168.535 418.878 168.535Z" fill="#FFB8B8"/>
<path d="M418.664 166.614C418.664 166.614 421.228 174.726 418.664 177.714C416.101 180.703 432.763 173.445 432.763 173.445C432.763 173.445 426.782 164.907 428.491 161.064L418.664 166.614Z" fill="#FFB8B8"/>
<path d="M443.272 203.675L442.375 209.52C442.375 209.52 442.828 210.847 443.379 212.782C444.097 215.304 444.981 218.859 445.233 221.841C445.494 224.863 445.101 227.296 443.23 227.45C440.547 227.672 439.149 229.299 437.757 231.719H406.85C406.931 230.388 407.029 229.004 407.145 227.583C407.209 226.729 407.279 225.863 407.357 224.987C407.442 223.979 410.469 205.054 408.194 200.981C403.496 192.572 409.476 187.747 409.476 187.747C409.476 187.747 410.33 181.343 410.33 179.209C410.33 177.535 416.893 175.601 419.73 174.841C419.914 174.794 420.076 174.747 420.225 174.713C420.716 174.586 421.011 174.513 421.011 174.513L423.254 173.594C423.254 173.594 429.556 172.377 429.983 171.523C430.256 171.155 430.639 170.883 431.077 170.746C431.978 170.362 433.128 170.088 433.401 169.815C433.792 169.367 434.145 168.887 434.456 168.381C435.276 167.442 436.38 166.796 437.601 166.543C442.19 165.386 448.782 167.679 448.782 167.679L446.475 182.728L443.272 203.675Z" fill="#F58220"/>
<path d="M456.689 194.364L441.308 205.036C441.308 205.036 432.336 214.428 438.745 214.428C445.154 214.428 447.715 206.318 447.715 206.318L467.368 197.78L456.689 194.364Z" fill="#FFB8B8"/>
<path d="M430.265 146.971L421.351 142.307L415.76 143.172C413.779 143.48 411.936 144.375 410.47 145.743C409.005 147.11 407.984 148.886 407.542 150.84L406.495 155.454L412.835 155.211L414.607 151.081V155.142L417.532 155.03L419.23 148.455L420.291 155.454L430.69 155.242L430.265 146.971Z" fill="#2F2E41"/>
<path d="M445.794 168.535L448.785 167.682C448.785 167.682 479.119 180.062 478.264 190.735C477.41 201.408 478.691 201.407 473.565 201.835C468.438 202.263 453.486 197.139 453.91 196.285C454.334 195.431 457.328 191.161 457.328 191.161L445.792 182.196L445.794 168.535Z" fill="#F58220"/>
<path d="M429.986 159.143C430.93 159.143 431.695 158.379 431.695 157.436C431.695 156.492 430.93 155.728 429.986 155.728C429.042 155.728 428.277 156.492 428.277 157.436C428.277 158.379 429.042 159.143 429.986 159.143Z" fill="#FFB8B8"/>
</g>
<defs>
<clipPath id="clip0_1_49">
<rect width="841" height="642" fill="white"/>
</clipPath>
</defs>
</svg>
