<svg width="943" height="654" viewBox="0 0 943 654" fill="none" xmlns="http://www.w3.org/2000/svg">
<path d="M187.078 463.589V40.4104C187.078 18.1279 201.956 0 220.242 0H908.839C927.125 0 942.003 18.1279 942.003 40.4104V463.589C942.003 485.871 927.125 504 908.839 504H220.242C201.956 504 187.078 485.871 187.078 463.589V463.589ZM938.64 40.4104C938.64 20.3554 925.298 4.09756 908.839 4.09756H220.242C203.783 4.09756 190.441 20.3558 190.441 40.4114V463.589C190.441 483.644 203.783 499.902 220.242 499.902H688.616C826.7 499.902 938.64 363.5 938.64 195.239V40.4104H938.64Z" fill="#E6E6E6"/>
<path d="M429.674 76.9744H43.7484C32.3052 76.9744 23 88.313 23 102.257V275.009C23 288.953 32.3052 300.291 43.7484 300.291H429.674C441.117 300.291 450.422 288.953 450.422 275.009V102.257C450.422 88.313 441.117 76.9744 429.674 76.9744V76.9744Z" fill="white"/>
<path d="M429.674 76.9744H43.7484C32.3052 76.9744 23 88.313 23 102.257V275.009C23 288.953 32.3052 300.291 43.7484 300.291H429.674C441.117 300.291 450.422 288.953 450.422 275.009V102.257C450.422 88.313 441.117 76.9744 429.674 76.9744V76.9744ZM448.24 275.009C448.24 287.491 439.917 297.633 429.674 297.633H43.7484C33.5051 297.633 25.1817 287.491 25.1817 275.009V102.257C25.1817 89.7752 33.5051 79.6329 43.7484 79.6329H429.674C439.917 79.6329 448.24 89.7752 448.24 102.257V275.009V275.009Z" fill="#3F3D56"/>
<path d="M810.778 133.8H575.39C571.681 133.8 568.664 130.124 568.664 125.605C568.664 121.086 571.681 117.41 575.39 117.41H810.778C814.486 117.41 817.504 121.086 817.504 125.605C817.504 130.124 814.486 133.8 810.778 133.8Z" fill="#E6E6E6"/>
<path d="M855.402 311.528H527.403V309.479C635.401 329.661 744.843 328 855.402 309.479V311.528Z" fill="#E6E6E6"/>
<path d="M810.778 238.288H575.39C571.681 238.288 568.664 234.611 568.664 230.093C568.664 225.574 571.681 221.898 575.39 221.898H810.778C814.486 221.898 817.504 225.574 817.504 230.093C817.504 234.611 814.486 238.288 810.778 238.288Z" fill="#E6E6E6"/>
<path d="M857.083 338.162H529.085V340.211H857.083V338.162Z" fill="#E6E6E6"/>
<path d="M810.778 184.39H575.39C571.681 184.39 568.664 180.714 568.664 176.195C568.664 171.676 571.681 168 575.39 168H810.778C814.486 168 817.504 171.676 817.504 176.195C817.504 180.714 814.486 184.39 810.778 184.39Z" fill="#E6E6E6"/>
<path d="M857.083 366.845C743.867 357.46 633.915 355.966 529.085 366.845V364.796H857.083V366.845Z" fill="#E6E6E6"/>
<path d="M526.71 143C539.71 143 550.249 132.544 550.249 119.646C550.249 106.748 539.71 96.2927 526.71 96.2927C513.71 96.2927 503.171 106.748 503.171 119.646C503.171 132.544 513.71 143 526.71 143Z" fill="#A6A2F5"/>
<path d="M538.954 105.971C537.832 105.32 536.119 105.658 535.503 106.869C532.705 112.368 529.907 117.867 527.11 123.366C524.853 119.858 521.965 116.795 518.616 114.228C517.537 113.401 515.79 114.065 515.165 115.126C514.403 116.418 514.988 117.72 516.07 118.549C519.976 121.543 522.988 125.567 525.016 130.007C525.787 131.696 528.566 131.589 529.371 130.007C532.867 123.136 536.363 116.266 539.858 109.395C540.472 108.189 540.18 106.683 538.954 105.971V105.971V105.971Z" fill="white"/>
<path d="M864.66 185C877.661 185 888.199 175.691 888.199 164.207C888.199 152.724 877.661 143.415 864.66 143.415C851.66 143.415 841.122 152.724 841.122 164.207C841.122 175.691 851.66 185 864.66 185Z" fill="#A6A2F5"/>
<path d="M876.904 152.032C875.782 151.452 874.069 151.753 873.453 152.831C870.655 157.727 867.858 162.623 865.06 167.519C862.803 164.396 859.915 161.669 856.566 159.383C855.487 158.647 853.74 159.238 853.115 160.183C852.353 161.333 852.939 162.493 854.02 163.231C857.926 165.896 860.938 169.478 862.966 173.432C863.737 174.935 866.517 174.84 867.321 173.432C870.817 167.315 874.313 161.197 877.809 155.08C878.422 154.006 878.13 152.665 876.904 152.032V152.032V152.032Z" fill="white"/>
<path d="M288.942 439.576H232.244C228.724 439.576 225.86 436.086 225.86 431.797C218.364 405.098 218.512 378.936 225.86 353.281C225.86 348.992 228.724 345.502 232.244 345.502H288.942C292.462 345.502 295.326 348.992 295.326 353.281V431.797C295.326 436.086 292.462 439.576 288.942 439.576H288.942V439.576Z" fill="#E6E6E6"/>
<path d="M244.392 347.82C235.208 347.82 227.763 356.892 227.763 368.084V430.131C227.763 434.067 230.381 437.258 233.612 437.258H264.965C280.682 437.258 293.424 421.733 293.424 402.581V354.947C293.424 351.011 290.805 347.82 287.575 347.82H244.392V347.82Z" fill="white"/>
<path d="M273.797 370.637H247.252C246.583 370.637 246.039 369.974 246.039 369.158C246.039 368.343 246.583 367.679 247.252 367.679H273.797C274.467 367.679 275.011 368.343 275.011 369.158C275.011 369.974 274.466 370.637 273.797 370.637Z" fill="#E6E6E6"/>
<path d="M273.797 402.173H247.252C246.583 402.173 246.039 401.51 246.039 400.694C246.039 399.879 246.583 399.215 247.252 399.215H273.797C274.467 399.215 275.011 399.879 275.011 400.694C275.011 401.51 274.466 402.173 273.797 402.173Z" fill="#E6E6E6"/>
<path d="M288.042 386.415H233.008C232.339 386.415 231.794 385.752 231.794 384.936C231.794 384.121 232.339 383.458 233.008 383.458H288.042C288.711 383.458 289.255 384.121 289.255 384.936C289.255 385.752 288.711 386.415 288.042 386.415Z" fill="#E6E6E6"/>
<path d="M288.691 414.996H265.727C265.058 414.996 264.513 414.332 264.513 413.517C264.513 412.701 265.058 412.038 265.727 412.038H288.691C289.36 412.038 289.904 412.701 289.904 413.517C289.904 414.332 289.36 414.996 288.691 414.996Z" fill="#E6E6E6"/>
<path d="M902.442 495.495C901.03 485.219 899.578 474.812 900.569 464.427C901.448 455.203 904.265 446.194 909.999 438.808C913.043 434.894 916.746 431.542 920.943 428.9C922.038 428.21 923.045 429.942 921.955 430.63C914.693 435.215 909.077 441.986 905.915 449.966C902.422 458.84 901.862 468.514 902.463 477.941C902.827 483.642 903.599 489.306 904.376 494.962C904.437 495.218 904.399 495.487 904.269 495.716C904.139 495.945 903.927 496.116 903.676 496.194C903.419 496.263 903.146 496.229 902.915 496.098C902.684 495.967 902.514 495.75 902.442 495.495V495.495Z" fill="#F2F2F2"/>
<path d="M716.298 260.728L864.463 383.415C866.328 384.955 868.727 385.694 871.136 385.468C873.544 385.243 875.765 384.072 877.311 382.213L939.77 306.923C941.311 305.06 942.05 302.663 941.825 300.257C941.599 297.85 940.428 295.632 938.567 294.087L790.401 171.4C788.537 169.86 786.137 169.122 783.729 169.347C781.32 169.572 779.099 170.743 777.554 172.602L715.095 247.892C713.553 249.755 712.814 252.152 713.04 254.559C713.265 256.965 714.437 259.184 716.298 260.728Z" fill="#CCCCCC"/>
<path d="M722.235 257.034L866.995 376.9C867.955 377.694 869.191 378.074 870.432 377.958C871.673 377.842 872.817 377.239 873.613 376.281L933.249 304.394C934.043 303.434 934.424 302.199 934.308 300.96C934.191 299.72 933.588 298.577 932.629 297.782L787.87 177.915C786.909 177.122 785.673 176.741 784.432 176.857C783.192 176.973 782.048 177.576 781.251 178.534L721.616 250.422C720.821 251.381 720.441 252.616 720.557 253.856C720.673 255.095 721.276 256.238 722.235 257.034Z" fill="white"/>
<path d="M775.352 228.845L848.583 289.484C849.031 289.854 849.547 290.133 850.102 290.304C850.657 290.475 851.24 290.535 851.819 290.481C852.397 290.427 852.959 290.26 853.473 289.989C853.987 289.717 854.442 289.348 854.812 288.901C855.183 288.454 855.462 287.939 855.634 287.384C855.805 286.829 855.865 286.247 855.811 285.669C855.757 285.091 855.589 284.529 855.318 284.016C855.047 283.503 854.677 283.048 854.229 282.678L780.998 222.039C780.551 221.669 780.035 221.39 779.48 221.219C778.925 221.048 778.341 220.988 777.763 221.042C777.184 221.096 776.622 221.263 776.109 221.534C775.595 221.805 775.14 222.175 774.769 222.622C774.398 223.069 774.119 223.584 773.948 224.139C773.777 224.693 773.716 225.276 773.77 225.854C773.825 226.432 773.992 226.994 774.264 227.507C774.535 228.02 774.905 228.475 775.352 228.845V228.845Z" fill="#CCCCCC"/>
<path d="M811.193 234.125L860.581 275.021C861.484 275.769 862.648 276.128 863.816 276.019C864.985 275.909 866.061 275.341 866.81 274.438C867.559 273.536 867.918 272.373 867.809 271.206C867.699 270.039 867.13 268.963 866.227 268.215L816.839 227.319C815.935 226.571 814.771 226.213 813.603 226.322C812.435 226.431 811.358 226.999 810.609 227.902C809.861 228.805 809.502 229.967 809.611 231.134C809.72 232.301 810.289 233.377 811.193 234.125Z" fill="#CCCCCC"/>
<path d="M887.72 317.763C880.085 317.763 873.895 311.579 873.895 303.951C873.895 296.323 880.085 290.139 887.72 290.139C895.355 290.139 901.544 296.323 901.544 303.951C901.544 311.579 895.355 317.763 887.72 317.763Z" fill="#6C63FF"/>
<path d="M777.75 276.265C775.307 276.265 773.327 274.286 773.327 271.845C773.327 269.404 775.307 267.425 777.75 267.425C780.194 267.425 782.174 269.404 782.174 271.845C782.174 274.286 780.194 276.265 777.75 276.265Z" fill="#E6E6E6"/>
<path d="M765.829 266.394C763.386 266.394 761.405 264.415 761.405 261.974C761.405 259.533 763.386 257.554 765.829 257.554C768.272 257.554 770.253 259.533 770.253 261.974C770.253 264.415 768.272 266.394 765.829 266.394Z" fill="#E6E6E6"/>
<path d="M753.908 256.522C751.465 256.522 749.484 254.543 749.484 252.102C749.484 249.661 751.465 247.683 753.908 247.683C756.351 247.683 758.332 249.661 758.332 252.102C758.332 254.543 756.351 256.522 753.908 256.522Z" fill="#E6E6E6"/>
<path d="M824.419 493.705L814.263 493.704L809.431 454.566L824.421 454.567L824.419 493.705Z" fill="#FFB8B8"/>
<path d="M827.009 490.392L807.008 490.391H807.007C805.334 490.391 803.676 490.721 802.13 491.361C800.583 492.001 799.178 492.939 797.994 494.121C796.811 495.304 795.872 496.707 795.231 498.253C794.591 499.798 794.261 501.454 794.261 503.126V503.54L827.009 503.541L827.009 490.392Z" fill="#2F2E41"/>
<path d="M860.87 493.705L850.713 493.704L845.882 454.566L860.871 454.567L860.87 493.705Z" fill="#FFB8B8"/>
<path d="M863.46 490.392L843.459 490.391H843.458C841.784 490.391 840.127 490.721 838.58 491.361C837.034 492.001 835.628 492.939 834.445 494.121C833.261 495.304 832.322 496.707 831.682 498.253C831.041 499.798 830.711 501.454 830.711 503.126V503.54L863.459 503.541L863.46 490.392Z" fill="#2F2E41"/>
<path d="M850.678 481.73H850.679L859.316 481.727C860.282 481.731 861.212 481.358 861.907 480.687C862.602 480.017 863.009 479.102 863.04 478.137L863.312 470.588C865.495 410.218 867.753 347.794 853.771 319.736L853.661 319.515L807.369 317.841L798.075 403.016C797.678 406.649 797.823 410.321 798.506 413.911L810.792 478.591C810.958 479.468 811.434 480.256 812.133 480.812C812.832 481.368 813.707 481.654 814.6 481.619L824.301 481.305C824.809 481.285 825.308 481.161 825.766 480.941C826.225 480.722 826.633 480.411 826.967 480.028C827.301 479.644 827.553 479.197 827.707 478.713C827.861 478.229 827.915 477.719 827.865 477.213L820.244 417.391C819.984 414.809 820.219 412.201 820.936 409.707L830.413 376.605C830.492 376.332 830.662 376.093 830.895 375.93C831.129 375.767 831.411 375.688 831.695 375.708C831.98 375.728 832.248 375.845 832.457 376.04C832.665 376.234 832.8 376.494 832.839 376.776L846.986 478.518C847.112 479.407 847.555 480.221 848.233 480.81C848.911 481.4 849.779 481.726 850.678 481.73V481.73Z" fill="#2F2E41"/>
<path d="M845.142 232.686C833.904 232.686 824.795 223.584 824.795 212.357C824.795 201.131 833.904 192.029 845.142 192.029C856.379 192.029 865.488 201.131 865.488 212.357C865.488 223.584 856.379 232.686 845.142 232.686Z" fill="#FFB8B8"/>
<path d="M809.539 324.128H851.641C852.176 324.128 852.705 324.013 853.192 323.791C853.679 323.569 854.112 323.244 854.461 322.84C854.811 322.435 855.07 321.96 855.22 321.447C855.37 320.934 855.408 320.395 855.33 319.866L853.25 305.633L865.465 272.069C866.726 268.604 867.194 264.9 866.836 261.231C866.478 257.561 865.302 254.019 863.394 250.862C861.487 247.706 858.897 245.016 855.813 242.991C852.73 240.965 849.232 239.655 845.575 239.156V239.156C840.366 238.43 835.06 239.389 830.436 241.894C825.812 244.398 822.112 248.316 819.877 253.073L817.194 258.776L805.873 319.725C805.773 320.262 805.793 320.815 805.931 321.344C806.069 321.873 806.322 322.365 806.672 322.786C807.022 323.206 807.46 323.544 807.956 323.776C808.451 324.008 808.991 324.128 809.539 324.128H809.539Z" fill="#6C63FF"/>
<path d="M898.417 359.83C897.15 359.536 895.962 358.968 894.938 358.166C893.915 357.364 893.079 356.347 892.491 355.188C891.903 354.028 891.577 352.754 891.535 351.455C891.494 350.156 891.737 348.863 892.25 347.668L859.442 273.616L878.21 268.894L904.557 343.169C906.509 344.162 908.029 345.836 908.828 347.874C909.627 349.911 909.651 352.171 908.894 354.225C908.137 356.278 906.653 357.983 904.722 359.016C902.791 360.049 900.547 360.339 898.417 359.83H898.417Z" fill="#FFB8B8"/>
<path d="M863.884 286.86L882.137 278.324C882.656 278.081 883.117 277.729 883.488 277.292C883.859 276.856 884.131 276.344 884.286 275.792C884.441 275.241 884.476 274.662 884.387 274.096C884.298 273.53 884.089 272.99 883.772 272.513L872.679 255.775C871.419 253.129 869.161 251.09 866.399 250.105C863.637 249.119 860.597 249.268 857.944 250.518C855.292 251.768 853.243 254.017 852.248 256.773C851.252 259.529 851.391 262.567 852.633 265.221L858.369 284.392C858.534 284.941 858.814 285.448 859.193 285.879C859.571 286.309 860.037 286.654 860.561 286.888C861.084 287.122 861.652 287.241 862.225 287.236C862.799 287.231 863.364 287.103 863.884 286.86H863.884Z" fill="#6C63FF"/>
<path d="M761.561 169.272C761.165 170.51 761.045 171.82 761.21 173.11C761.376 174.399 761.822 175.636 762.518 176.735C763.213 177.833 764.142 178.766 765.237 179.467C766.333 180.168 767.569 180.621 768.858 180.793L815.721 246.868L829.392 233.182L779.029 172.535C779.175 170.352 778.514 168.191 777.172 166.461C775.829 164.732 773.899 163.555 771.746 163.152C769.592 162.75 767.366 163.151 765.489 164.279C763.612 165.407 762.214 167.184 761.561 169.272V169.272Z" fill="#FFB8B8"/>
<path d="M804.884 239.113C804.817 239.682 804.874 240.258 805.051 240.803C805.227 241.348 805.519 241.849 805.907 242.271L819.451 257.011C821.096 259.438 823.637 261.115 826.518 261.673C829.398 262.231 832.382 261.625 834.816 259.988C837.25 258.352 838.935 255.818 839.501 252.941C840.068 250.065 839.47 247.082 837.838 244.646L829.13 226.556C828.881 226.039 828.524 225.583 828.083 225.217C827.642 224.851 827.127 224.584 826.573 224.435C826.02 224.286 825.44 224.257 824.875 224.352C824.309 224.447 823.771 224.662 823.296 224.983L806.61 236.275C806.135 236.596 805.735 237.016 805.437 237.506C805.139 237.995 804.951 238.543 804.884 239.113V239.113Z" fill="#6C63FF"/>
<path d="M818.407 203.849C818.42 202.009 818.676 200.179 819.168 198.406C822.446 186.304 834.548 179.04 846.693 180.863C849.054 180.186 851.5 179.844 853.957 179.847V179.847C860.207 179.847 866.252 182.08 870.999 186.142C875.746 190.205 878.882 195.83 879.841 202.001L889.651 265.095H836.633L828.072 210.035C827.754 207.989 827.679 205.912 827.849 203.849H818.407Z" fill="#2F2E41"/>
<path d="M752.511 504H927.307C927.527 504 927.738 503.913 927.893 503.758C928.048 503.602 928.136 503.392 928.136 503.172C928.136 502.953 928.048 502.742 927.893 502.587C927.738 502.432 927.527 502.345 927.307 502.345H752.511C752.291 502.345 752.08 502.432 751.925 502.587C751.769 502.742 751.682 502.953 751.682 503.172C751.682 503.392 751.769 503.602 751.925 503.758C752.08 503.913 752.291 504 752.511 504Z" fill="#CCCCCC"/>
<path d="M576.429 407.49H374.576C372.039 407.487 369.606 406.478 367.812 404.684C366.017 402.89 365.008 400.457 365.005 397.919V295.253C365.008 292.715 366.017 290.283 367.812 288.488C369.606 286.694 372.039 285.685 374.576 285.682H576.429C578.967 285.685 581.4 286.694 583.194 288.488C584.988 290.283 585.997 292.715 586 295.253V397.919C585.997 400.457 584.988 402.89 583.194 404.684C581.399 406.478 578.967 407.487 576.429 407.49V407.49Z" fill="#CCCCCC"/>
<path d="M574.109 400.53H376.896C375.589 400.528 374.336 400.008 373.411 399.084C372.487 398.16 371.967 396.907 371.966 395.599V297.573C371.967 296.266 372.487 295.012 373.411 294.088C374.336 293.164 375.589 292.644 376.896 292.643H574.109C575.416 292.644 576.67 293.164 577.594 294.088C578.518 295.012 579.038 296.266 579.04 297.573V395.599C579.038 396.907 578.518 398.16 577.594 399.084C576.67 400.008 575.416 400.528 574.109 400.53Z" fill="white"/>
<path d="M562.688 425.279L540.508 403.1L568.944 403.818V422.688C568.951 423.414 568.74 424.126 568.336 424.73C567.932 425.334 567.356 425.803 566.682 426.074C566.23 426.263 565.746 426.361 565.256 426.362C564.778 426.36 564.304 426.264 563.863 426.078C563.423 425.892 563.023 425.621 562.688 425.279V425.279Z" fill="#CCCCCC"/>
<path d="M550.097 342.19H450.331C449.1 342.19 447.92 341.701 447.049 340.831C446.179 339.961 445.69 338.781 445.69 337.55C445.69 336.319 446.179 335.139 447.049 334.269C447.92 333.398 449.1 332.91 450.331 332.91H550.097C551.328 332.91 552.508 333.398 553.378 334.269C554.249 335.139 554.738 336.319 554.738 337.55C554.738 338.781 554.249 339.961 553.378 340.831C552.508 341.701 551.328 342.19 550.097 342.19V342.19Z" fill="#CCCCCC"/>
<path d="M517.615 322.469H450.331C449.1 322.469 447.92 321.98 447.049 321.11C446.179 320.24 445.69 319.059 445.69 317.829C445.69 316.598 446.179 315.418 447.049 314.547C447.92 313.677 449.1 313.188 450.331 313.188H517.615C518.846 313.188 520.026 313.677 520.896 314.547C521.767 315.418 522.255 316.598 522.255 317.829C522.255 319.059 521.767 320.24 520.896 321.11C520.026 321.98 518.846 322.469 517.615 322.469V322.469Z" fill="#CCCCCC"/>
<path d="M409.032 342.19C417.04 342.19 423.533 335.698 423.533 327.689C423.533 319.681 417.04 313.188 409.032 313.188C401.023 313.188 394.531 319.681 394.531 327.689C394.531 335.698 401.023 342.19 409.032 342.19Z" fill="#6C63FF"/>
<path d="M519.352 379.984C521.915 379.984 523.992 377.906 523.992 375.344C523.992 372.781 521.915 370.703 519.352 370.703C516.789 370.703 514.712 372.781 514.712 375.344C514.712 377.906 516.789 379.984 519.352 379.984Z" fill="#E6E6E6"/>
<path d="M535.593 379.984C538.156 379.984 540.234 377.906 540.234 375.344C540.234 372.781 538.156 370.703 535.593 370.703C533.03 370.703 530.953 372.781 530.953 375.344C530.953 377.906 533.03 379.984 535.593 379.984Z" fill="#E6E6E6"/>
<path d="M551.834 379.984C554.397 379.984 556.475 377.906 556.475 375.344C556.475 372.781 554.397 370.703 551.834 370.703C549.271 370.703 547.194 372.781 547.194 375.344C547.194 377.906 549.271 379.984 551.834 379.984Z" fill="#E6E6E6"/>
<path d="M568.058 275.818C566.687 276.311 565.44 277.1 564.407 278.127C563.373 279.155 562.577 280.397 562.075 281.765C561.573 283.133 561.377 284.595 561.501 286.047C561.625 287.5 562.067 288.907 562.793 290.17L539.573 316.93L557.825 319.348L577.077 293.566C579.119 292.204 580.589 290.141 581.211 287.767C581.833 285.393 581.562 282.874 580.451 280.686C579.339 278.498 577.463 276.794 575.179 275.897C572.895 275 570.362 274.972 568.058 275.818V275.818Z" fill="#FFB8B8"/>
<path d="M413.015 286.531C413.511 287.902 413.699 289.365 413.568 290.816C413.437 292.268 412.989 293.673 412.256 294.933C411.523 296.193 410.523 297.277 409.326 298.108C408.128 298.939 406.764 299.498 405.327 299.745L399.549 334.701L386.037 322.194L393.596 290.917C393.341 288.476 393.991 286.027 395.421 284.033C396.852 282.039 398.964 280.639 401.358 280.098C403.751 279.558 406.26 279.914 408.409 281.1C410.557 282.285 412.196 284.218 413.015 286.531V286.531Z" fill="#FFB8B8"/>
<path d="M449.304 640.077L461.459 640.076L467.242 593.192L449.302 593.193L449.304 640.077Z" fill="#FFB8B8"/>
<path d="M446.203 636.109L470.141 636.108H470.142C472.146 636.108 474.129 636.502 475.98 637.269C477.831 638.035 479.513 639.159 480.929 640.576C482.346 641.992 483.47 643.674 484.236 645.525C485.003 647.376 485.398 649.359 485.398 651.363V651.858L446.204 651.86L446.203 636.109Z" fill="#2F2E41"/>
<path d="M386.841 640.077L398.997 640.076L404.779 593.192L386.839 593.193L386.841 640.077Z" fill="#FFB8B8"/>
<path d="M383.741 636.109L407.679 636.108H407.68C409.683 636.108 411.667 636.502 413.518 637.269C415.368 638.035 417.05 639.159 418.467 640.576C419.883 641.992 421.007 643.674 421.774 645.525C422.54 647.376 422.935 649.359 422.935 651.363V651.858L383.741 651.86L383.741 636.109Z" fill="#2F2E41"/>
<path d="M446.767 319.975C460.216 319.975 471.118 309.072 471.118 295.623C471.118 282.174 460.216 271.271 446.767 271.271C433.318 271.271 422.415 282.174 422.415 295.623C422.415 309.072 433.318 319.975 446.767 319.975Z" fill="#FFB8B8"/>
<path d="M443.848 624.502L441.834 496.199C441.829 495.836 441.692 495.488 441.448 495.22C441.204 494.951 440.87 494.781 440.509 494.742C440.149 494.702 439.786 494.796 439.49 495.005C439.193 495.214 438.984 495.525 438.9 495.878L405.893 621.375C405.645 622.379 405.059 623.267 404.234 623.892C403.409 624.516 402.395 624.838 401.361 624.804L383.227 624.029C382.611 624.002 382.006 623.848 381.452 623.576C380.898 623.304 380.407 622.92 380.009 622.449C379.611 621.977 379.315 621.428 379.14 620.837C378.965 620.245 378.914 619.623 378.992 619.011L406.999 457.74L407.057 457.285L485.068 460.976L485.577 460.999L468.848 624.77C468.76 625.891 468.254 626.939 467.43 627.704C466.606 628.469 465.524 628.896 464.399 628.901H448.309C447.138 628.896 446.015 628.433 445.181 627.611C444.348 626.789 443.869 625.673 443.848 624.502V624.502Z" fill="#2F2E41"/>
<path d="M505.462 471.844L392.258 462.554C391.575 462.498 390.914 462.285 390.326 461.932C389.738 461.579 389.24 461.096 388.869 460.519C388.499 459.942 388.266 459.288 388.19 458.606C388.113 457.925 388.195 457.235 388.428 456.591L406.255 407.303L407.281 348.803C407.318 346.679 407.777 344.584 408.63 342.639C409.483 340.694 410.714 338.938 412.251 337.472C413.788 336.007 415.601 334.861 417.585 334.101C419.568 333.342 421.683 332.984 423.806 333.048L431.334 326.224H458.916L461.318 329.372L480.51 332.322C483.929 332.861 487.083 334.486 489.508 336.955C491.932 339.425 493.498 342.609 493.975 346.037L510.249 466.803C510.334 467.433 510.283 468.073 510.1 468.682C509.917 469.291 509.606 469.854 509.188 470.332C508.77 470.811 508.254 471.195 507.675 471.459C507.097 471.722 506.469 471.859 505.833 471.86C505.71 471.86 505.586 471.855 505.462 471.844Z" fill="#2F2E41"/>
<path d="M483.406 337.993L531.674 323.85L553.519 295.09C554.121 294.298 554.97 293.729 555.931 293.475C556.893 293.221 557.911 293.295 558.826 293.686L572.465 299.516C573.046 299.764 573.568 300.134 573.996 300.599C574.424 301.065 574.748 301.616 574.947 302.216C575.146 302.817 575.214 303.452 575.149 304.081C575.083 304.71 574.884 305.318 574.566 305.865L558.241 333.879C555.583 338.462 551.536 342.081 546.686 344.213L489.913 369.31L483.406 337.993Z" fill="#2F2E41"/>
<path d="M390.801 359.147C387.917 357.069 385.616 354.283 384.122 351.057C382.628 347.831 381.99 344.275 382.271 340.731L384.389 312.664C384.476 311.543 384.983 310.496 385.807 309.732C386.632 308.967 387.714 308.541 388.838 308.539H388.878L404.872 308.681C405.527 308.687 406.173 308.837 406.764 309.121C407.354 309.405 407.875 309.815 408.29 310.323C408.704 310.831 409.001 311.423 409.16 312.059C409.319 312.695 409.337 313.357 409.211 314.001L406.243 329.142L427.421 338.09L409.587 372.785L390.801 359.147Z" fill="#2F2E41"/>
<path d="M460.933 266.423C460.933 266.423 435.467 252.711 421.586 268.894C407.706 285.078 426.875 310.385 426.875 310.385L454.188 313.83C454.188 313.83 455.179 295.263 461.682 295.624C468.185 295.984 488.382 272.555 460.933 266.423Z" fill="#2F2E41"/>
<path d="M532.192 653.253H322.991C322.729 653.253 322.476 653.148 322.29 652.963C322.104 652.777 322 652.524 322 652.261C322 651.999 322.104 651.746 322.29 651.56C322.476 651.374 322.729 651.27 322.991 651.27H532.192C532.455 651.27 532.707 651.374 532.893 651.56C533.079 651.746 533.184 651.999 533.184 652.261C533.184 652.524 533.079 652.777 532.893 652.963C532.707 653.148 532.455 653.253 532.192 653.253Z" fill="#CCCCCC"/>
<path d="M103.952 181.162C103.039 176.759 102.771 180.002 100.785 176.009C102.148 181.169 99.6329 179.48 96.2915 183.526C72.8096 187.376 71.3299 178.967 62.6398 179.225L62.5953 179.224C60.6832 179.192 59.7009 176.798 60.8536 175.202C63.7001 171.263 66.8379 165.184 63.8683 161.357C58.6074 154.577 63.2435 140.674 65.511 143.68C65.511 132.086 79.1667 124.483 84.4639 126.367C94.2518 129.848 103.316 134.542 104.414 145.047C104.585 146.687 104.807 148.317 105.089 149.941C105.661 153.238 108.019 154.113 107.207 157.351L104.671 160.049C103.48 164.8 103.856 169.789 105.487 174.395C106.389 176.941 106.513 179.124 103.952 181.162V181.162Z" fill="#2F2E41"/>
<path d="M79.5059 165.605C71.3768 165.605 64.7869 158.715 64.7869 150.215C64.7869 141.716 71.3768 134.826 79.5059 134.826C87.635 134.826 94.2249 141.716 94.2249 150.215C94.2249 158.715 87.635 165.605 79.5059 165.605Z" fill="#A0616A"/>
<path d="M102.435 501.046L94.8548 501.233L90.6296 465.628L101.816 465.351L102.435 501.046Z" fill="#A0616A"/>
<path d="M76.4287 517.581C76.4287 518.92 77.3374 520.005 78.4584 520.005H93.5041C93.5041 520.005 94.9848 513.782 101.021 511.104L101.438 520.005H109.2L108.259 505.693C108.259 505.693 110.336 498.036 106.024 494.122C101.712 490.208 105.204 490.753 105.204 490.753L103.508 481.895L91.7794 483.337L91.6931 497.242L86.0013 511.044L77.6529 515.356C76.9098 515.74 76.4288 516.614 76.4288 517.581L76.4287 517.581H76.4287H76.4287Z" fill="#2F2E41"/>
<path d="M94.0984 468.743L88.0776 473.562L64.6076 447.387L73.4923 440.276L94.0984 468.743Z" fill="#A0616A"/>
<path d="M82.3937 498.119C83.1478 499.201 84.4936 499.519 85.3996 498.829L97.5594 489.564C97.5594 489.564 95.251 483.624 98.6214 477.742L103.972 484.679L110.244 479.9L101.423 468.912C101.423 468.912 98.788 461.445 93.0985 460.937C87.4089 460.429 90.5385 458.719 90.5385 458.719L84.1781 452.604L75.5114 460.991L83.274 472.283L86.4482 486.942L82.1297 495.567C81.7454 496.335 81.8492 497.338 82.3937 498.119L82.3937 498.119H82.3937Z" fill="#2F2E41"/>
<path d="M115.788 318.99C115.331 320.95 116.173 330.068 115.703 333.205C114.506 341.182 103.571 384.673 105.457 397.071C112.369 442.498 102.81 471.64 102.81 471.64H87.3904L79.1667 334.067L71.1405 345.129L55.4354 394.173L83.2171 446.398L68.7109 458.924L25.3987 386.923L56.1763 266.478L58.0357 259.206L99.6201 257.993L97.3064 261.618L102.57 267.056C102.57 267.056 102.577 267.07 102.605 267.1C103.416 268.284 121.436 294.792 115.788 318.99V318.99L115.788 318.99Z" fill="#2F2E41"/>
<path d="M102.605 267.1C97.7888 268.897 65.2426 267.041 56.1764 266.478L58.0357 259.206L99.6202 257.993L97.3064 261.618L102.57 267.056C102.57 267.056 102.577 267.07 102.605 267.1V267.1H102.605Z" fill="#A0616A"/>
<path d="M48.7795 208.861L50.2773 217.171L50.6404 219.164L58.6074 236.261L57.5604 261.326C56.89 264.259 85.1786 257.602 99.8742 264.48L111.313 207.279L99.7144 180.916L90.6369 175.643L89.124 169.316H69.8948C68.8707 174.33 69.9808 176.801 71.9709 178.223L67.154 191.654L48.7795 208.861V208.861L48.7795 208.861Z" fill="#F58220"/>
<path d="M33.7389 159.846C33.9768 161.998 34.66 163.916 35.6038 165.361L36.6326 186.011L46.0164 185.212L43.9624 164.351C44.5658 162.718 44.8124 160.688 44.5744 158.536C44.0307 153.62 41.1643 149.928 38.1721 150.29C35.1799 150.652 33.1951 154.93 33.7388 159.846L33.7389 159.846V159.846Z" fill="#A0616A"/>
<path d="M71.1392 181.548L69.915 184.672C69.915 184.672 87.8019 182.798 87.4199 192.563C87.0941 200.894 53.4258 233.911 51.817 234.682V234.682C47.0523 236.965 41.5145 233.893 40.6523 228.487C33.0713 208.037 31.5002 189.6 34.9642 172.849H45.2438L48.5913 186.063L48.7795 196.115L54.2001 208.205L71.9709 184.672L71.1392 181.548V181.548V181.548Z" fill="#F58220"/>
<path d="M130.733 296.328C130.073 294.223 129.921 292.136 130.206 290.37L122.698 270.728L131.742 267.266L138.384 287.564C139.613 288.81 140.674 290.585 141.335 292.691C142.845 297.501 141.696 302.214 138.768 303.219C135.841 304.223 132.243 301.138 130.733 296.328V296.328Z" fill="#A0616A"/>
<path d="M87.426 181.558C87.426 181.558 98.5307 177.156 104.835 182.535C107.434 184.754 118.932 200.041 120.703 220.621C120.842 222.234 121.893 223.622 122.485 225.13C126.136 234.434 132.422 238.719 135.095 246.676C136.14 249.785 134.224 257.826 134.884 260.509C138.34 274.555 137.093 282.564 137.093 282.564L127.76 285.812L122.698 282.072L114.383 250.325L87.4259 181.558L87.426 181.558Z" fill="#F58220"/>
<path d="M3.90314 157.351H38.5676C40.7199 157.351 42.4708 155.52 42.4708 153.27C47.054 139.264 46.9635 125.54 42.4708 112.081C42.4708 109.831 40.7199 108 38.5676 108H3.90314C1.75092 108 -1.10873e-05 109.831 -1.10873e-05 112.081V153.27C-1.10873e-05 155.52 1.7509 157.351 3.90314 157.351V157.351Z" fill="#E6E6E6"/>
<path d="M31.1405 109.216C36.7558 109.216 41.3079 113.975 41.3079 119.846V152.396C41.3079 154.461 39.7069 156.135 37.7319 156.135H18.5624C8.95301 156.135 1.16306 147.99 1.16306 137.943V112.955C1.16306 110.89 2.7641 109.216 4.7391 109.216H31.1405V109.216Z" fill="white"/>
<path d="M13.1624 121.186H29.3919C29.8011 121.186 30.134 120.838 30.134 120.41C30.134 119.982 29.801 119.634 29.3919 119.634H13.1624C12.7533 119.634 12.4205 119.982 12.4205 120.41C12.4205 120.838 12.7533 121.186 13.1624 121.186Z" fill="#E6E6E6"/>
<path d="M13.1624 137.729H29.3919C29.8011 137.729 30.134 137.381 30.134 136.954C30.134 136.526 29.801 136.178 29.3919 136.178H13.1624C12.7533 136.178 12.4205 136.526 12.4205 136.954C12.4205 137.381 12.7533 137.729 13.1624 137.729Z" fill="#E6E6E6"/>
<path d="M4.45363 129.463H38.1009C38.51 129.463 38.843 129.115 38.843 128.687C38.843 128.259 38.51 127.911 38.1009 127.911H4.45363C4.04447 127.911 3.71171 128.259 3.71171 128.687C3.71171 129.115 4.04448 129.463 4.45363 129.463Z" fill="#E6E6E6"/>
<path d="M4.0568 144.456H18.0966C18.5058 144.456 18.8387 144.108 18.8387 143.68C18.8387 143.252 18.5058 142.904 18.0966 142.904H4.0568C3.64764 142.904 3.31488 143.252 3.31488 143.68C3.31488 144.108 3.64765 144.456 4.0568 144.456Z" fill="#E6E6E6"/>
<path d="M75.5159 132.007H78.5124C87.279 132.017 102.263 144.982 96.465 154.075C101.416 167.883 101.597 175.067 99.4948 178.827C98.7212 180.211 97.185 180.842 95.6555 180.729C95.4516 180.715 95.2462 180.71 95.0395 180.717C93.5576 180.768 91.5699 188.051 90.1907 188.611L86.5293 187.448L80.5236 181.173L83.571 171.603L89.4676 166.78L88.6642 155.609C92.6109 146.125 88.3172 145.66 85.9008 142.601L85.6564 152.416L82.1957 148.924C79.3769 149.001 76.0827 150.278 73.8928 147.621C69.9149 142.755 65.7911 148.63 61.0927 149.817L59.6352 148.611C59.5853 145.874 59.9725 143.232 60.724 140.866C61.0777 139.753 61.9819 138.835 62.0199 137.728C62.1625 133.573 69.6724 129.544 75.5158 132.007H75.5159V132.007Z" fill="#2F2E41"/>
<path d="M300.104 264L299.985 262.24C303.408 262.007 306.84 261.536 310.185 260.839L310.54 262.566C307.117 263.278 303.606 263.761 300.104 264V264ZM289.56 263.843C286.019 263.523 282.52 263.013 279.158 262.329L279.507 260.6C282.805 261.272 286.241 261.773 289.717 262.087L289.56 263.843H289.56ZM320.685 259.711L320.097 258.049C323.321 256.896 326.497 255.507 329.536 253.92L330.345 255.485C327.235 257.109 323.985 258.531 320.685 259.711H320.685ZM268.994 259.6C265.633 258.467 262.356 257.114 259.255 255.577L260.031 253.997C263.062 255.497 266.265 256.821 269.551 257.928L268.994 259.6V259.6ZM250.159 250.235C247.262 248.239 244.492 246.014 241.926 243.621L243.119 242.328C245.623 244.662 248.325 246.833 251.151 248.78L250.159 250.235H250.159ZM339.335 249.976L338.322 248.537C341.116 246.549 343.801 244.35 346.302 242.002L347.5 243.29C344.942 245.693 342.194 247.943 339.335 249.976ZM234.743 235.855C232.56 233.117 230.547 230.18 228.762 227.126L230.275 226.233C232.017 229.214 233.981 232.08 236.112 234.753L234.743 235.855V235.855ZM354.691 235.554L353.331 234.44C355.495 231.768 357.496 228.924 359.275 225.988L360.774 226.906C358.952 229.91 356.906 232.819 354.691 235.554H354.691ZM224.069 217.644C222.738 214.41 221.606 211.035 220.705 207.611L222.401 207.16C223.282 210.508 224.389 213.808 225.69 216.969L224.069 217.644L224.069 217.644ZM365.629 217.506L364.02 216.802C365.386 213.647 366.546 210.365 367.469 207.046L369.158 207.522C368.214 210.917 367.027 214.276 365.629 217.506ZM218.681 197.223C218.232 193.738 218.003 190.185 218 186.662L219.755 186.66C219.758 190.109 219.982 193.587 220.421 196.997L218.681 197.223V197.223ZM371.291 197.153L369.552 196.915C370.012 193.517 370.245 190.043 370.245 186.592L370.245 186.432H372L372 186.585C372 190.123 371.761 193.676 371.291 197.153V197.153ZM220.403 176.323L218.662 176.099C219.107 172.596 219.782 169.099 220.668 165.709L222.365 166.156C221.498 169.473 220.838 172.894 220.403 176.323H220.403ZM369.531 176.112C369.062 172.701 368.354 169.293 367.427 165.985L369.115 165.507C370.065 168.892 370.789 172.379 371.27 175.871L369.531 176.112H369.531ZM225.636 156.343L224.014 155.671C225.356 152.396 226.928 149.204 228.686 146.184L230.201 147.075C228.483 150.024 226.947 153.143 225.636 156.343H225.636ZM363.96 156.243C362.591 153.097 360.991 150.012 359.203 147.075L360.7 146.155C362.529 149.16 364.167 152.317 365.568 155.537L363.96 156.243V156.243ZM353.246 138.64C351.08 135.977 348.712 133.437 346.205 131.091L347.401 129.8C349.965 132.201 352.389 134.799 354.605 137.524L353.246 138.64V138.64ZM236.018 138.547L234.647 137.448C236.839 134.686 239.248 132.07 241.806 129.673L243.003 130.963C240.507 133.302 238.157 135.853 236.018 138.547ZM338.211 124.568C335.408 122.583 332.446 120.776 329.407 119.196L330.214 117.63C333.323 119.246 336.353 121.096 339.222 123.127L338.211 124.568L338.211 124.568ZM251.02 124.493L250.024 123.04C252.891 121.056 255.947 119.252 259.109 117.677L259.888 119.257C256.801 120.795 253.817 122.556 251.02 124.493H251.02ZM269.401 115.304L268.839 113.633C272.098 112.529 275.516 111.604 278.999 110.887L279.351 112.614C275.939 113.317 272.591 114.222 269.401 115.304V115.304ZM319.956 115.083C316.728 113.936 313.388 113.004 310.03 112.311L310.382 110.584C313.819 111.292 317.237 112.246 320.541 113.42L319.956 115.083L319.956 115.083ZM289.559 111.111L289.398 109.355C291.155 109.193 292.96 109.075 294.765 109.003C296.472 108.983 298.242 109.059 299.942 109.172L299.828 110.932C298.165 110.821 296.473 110.766 294.8 110.766C293.06 110.836 291.285 110.952 289.559 111.111V111.111Z" fill="#3F3D56"/>
<path d="M236.042 258.84C249.159 258.84 259.792 248.207 259.792 235.091C259.792 221.974 249.159 211.341 236.042 211.341C222.926 211.341 212.293 221.974 212.293 235.091C212.293 248.207 222.926 258.84 236.042 258.84Z" fill="#A6A2F5"/>
<path d="M315.5 285C328.479 285 339 274.255 339 261C339 247.745 328.479 237 315.5 237C302.521 237 292 247.745 292 261C292 274.255 302.521 285 315.5 285Z" fill="#A6A2F5"/>
<path d="M306 134C319.255 134 330 123.479 330 110.5C330 97.5213 319.255 87 306 87C292.745 87 282 97.5213 282 110.5C282 123.479 292.745 134 306 134Z" fill="#A6A2F5"/>
<path d="M229.749 172.064C242.866 172.064 253.499 161.431 253.499 148.315C253.499 135.199 242.866 124.566 229.749 124.566C216.633 124.566 206 135.199 206 148.315C206 161.431 216.633 172.064 229.749 172.064Z" fill="#A6A2F5"/>
<path d="M233.544 231.727H235.064V236.798C235.064 237.267 234.959 237.674 234.748 238.02C234.54 238.366 234.25 238.632 233.878 238.819C233.506 239.006 233.074 239.099 232.582 239.099C232.144 239.099 231.746 239.022 231.388 238.869C231.033 238.712 230.752 238.476 230.543 238.158C230.335 237.839 230.232 237.437 230.234 236.955H231.765C231.77 237.146 231.809 237.311 231.882 237.448C231.958 237.583 232.061 237.687 232.191 237.761C232.324 237.832 232.48 237.867 232.66 237.867C232.849 237.867 233.009 237.827 233.139 237.746C233.272 237.664 233.372 237.543 233.441 237.384C233.51 237.226 233.544 237.03 233.544 236.798V231.727ZM240.281 233.819C240.252 233.532 240.13 233.31 239.915 233.151C239.699 232.993 239.407 232.913 239.038 232.913C238.787 232.913 238.575 232.949 238.402 233.02C238.229 233.089 238.097 233.184 238.004 233.308C237.914 233.431 237.869 233.57 237.869 233.727C237.865 233.857 237.892 233.97 237.951 234.067C238.013 234.165 238.097 234.249 238.203 234.32C238.31 234.388 238.433 234.449 238.572 234.501C238.712 234.55 238.861 234.593 239.02 234.629L239.673 234.785C239.991 234.856 240.282 234.951 240.547 235.069C240.812 235.187 241.042 235.333 241.236 235.506C241.43 235.679 241.58 235.882 241.687 236.116C241.796 236.351 241.851 236.62 241.854 236.923C241.851 237.368 241.738 237.754 241.513 238.08C241.29 238.405 240.968 238.657 240.547 238.837C240.128 239.014 239.622 239.103 239.031 239.103C238.443 239.103 237.932 239.013 237.496 238.833C237.063 238.653 236.725 238.387 236.481 238.034C236.239 237.679 236.113 237.24 236.101 236.717H237.589C237.605 236.96 237.675 237.164 237.798 237.327C237.924 237.488 238.091 237.61 238.299 237.693C238.51 237.774 238.748 237.814 239.013 237.814C239.273 237.814 239.499 237.776 239.691 237.7C239.885 237.625 240.036 237.519 240.142 237.384C240.249 237.249 240.302 237.094 240.302 236.919C240.302 236.756 240.253 236.618 240.156 236.507C240.062 236.396 239.922 236.301 239.737 236.223C239.555 236.145 239.331 236.074 239.066 236.01L238.274 235.811C237.661 235.662 237.177 235.429 236.822 235.112C236.467 234.794 236.29 234.367 236.293 233.83C236.29 233.389 236.407 233.004 236.644 232.675C236.883 232.346 237.211 232.089 237.628 231.905C238.045 231.72 238.518 231.628 239.048 231.628C239.588 231.628 240.059 231.72 240.462 231.905C240.866 232.089 241.181 232.346 241.406 232.675C241.631 233.004 241.747 233.386 241.754 233.819H240.281Z" fill="white"/>
<path d="M216.632 152V144.727H218.17V147.728H221.291V144.727H222.825V152H221.291V148.996H218.17V152H216.632ZM223.816 145.995V144.727H229.789V145.995H227.562V152H226.043V145.995H223.816ZM230.773 144.727H232.669L234.672 149.614H234.757L236.76 144.727H238.656V152H237.165V147.266H237.104L235.222 151.964H234.207L232.325 147.249H232.264V152H230.773V144.727ZM239.923 152V144.727H241.461V150.732H244.579V152H239.923Z" fill="white"/>
<path d="M298.632 265V257.727H301.501C302.051 257.727 302.519 257.826 302.908 258.022C303.298 258.216 303.595 258.492 303.799 258.849C304.005 259.205 304.108 259.622 304.108 260.103C304.108 260.586 304.004 261.001 303.795 261.349C303.587 261.695 303.285 261.96 302.89 262.145C302.497 262.33 302.021 262.422 301.462 262.422H299.541V261.186H301.214C301.507 261.186 301.751 261.146 301.945 261.065C302.139 260.985 302.284 260.864 302.379 260.703C302.476 260.542 302.524 260.342 302.524 260.103C302.524 259.862 302.476 259.658 302.379 259.492C302.284 259.326 302.138 259.201 301.942 259.116C301.748 259.028 301.503 258.984 301.207 258.984H300.17V265H298.632ZM302.56 261.69L304.367 265H302.67L300.901 261.69H302.56ZM305.195 265V257.727H310.095V258.995H306.732V260.728H309.843V261.996H306.732V263.732H310.109V265H305.195ZM312.571 265H310.923L313.434 257.727H315.416L317.923 265H316.275L314.453 259.389H314.396L312.571 265ZM312.468 262.141H316.36V263.342H312.468V262.141ZM324.873 260.273H323.318C323.289 260.072 323.231 259.893 323.144 259.737C323.056 259.579 322.944 259.444 322.806 259.332C322.669 259.221 322.511 259.136 322.331 259.077C322.153 259.018 321.96 258.988 321.752 258.988C321.375 258.988 321.047 259.081 320.768 259.268C320.489 259.453 320.272 259.723 320.118 260.078C319.964 260.431 319.887 260.859 319.887 261.364C319.887 261.882 319.964 262.318 320.118 262.67C320.275 263.023 320.492 263.29 320.772 263.469C321.051 263.649 321.374 263.739 321.741 263.739C321.947 263.739 322.138 263.712 322.313 263.658C322.49 263.603 322.648 263.524 322.785 263.42C322.922 263.313 323.036 263.184 323.126 263.033C323.218 262.881 323.282 262.708 323.318 262.514L324.873 262.521C324.833 262.855 324.732 263.177 324.571 263.487C324.413 263.795 324.199 264.071 323.929 264.315C323.661 264.556 323.342 264.748 322.97 264.89C322.6 265.03 322.183 265.099 321.716 265.099C321.068 265.099 320.488 264.953 319.976 264.659C319.467 264.366 319.065 263.941 318.769 263.384C318.475 262.828 318.328 262.154 318.328 261.364C318.328 260.571 318.478 259.896 318.776 259.339C319.074 258.783 319.479 258.359 319.99 258.068C320.502 257.775 321.077 257.628 321.716 257.628C322.138 257.628 322.528 257.687 322.888 257.805C323.25 257.924 323.571 258.097 323.85 258.324C324.13 258.549 324.357 258.825 324.532 259.151C324.71 259.478 324.824 259.852 324.873 260.273ZM325.699 258.995V257.727H331.672V258.995H329.445V265H327.925V258.995H325.699Z" fill="white"/>
<path d="M302.049 108.273H300.494C300.465 108.072 300.407 107.893 300.32 107.737C300.232 107.579 300.12 107.444 299.982 107.332C299.845 107.221 299.686 107.136 299.506 107.077C299.329 107.018 299.136 106.988 298.928 106.988C298.551 106.988 298.223 107.081 297.944 107.268C297.665 107.453 297.448 107.723 297.294 108.078C297.14 108.431 297.063 108.859 297.063 109.364C297.063 109.882 297.14 110.318 297.294 110.67C297.45 111.023 297.668 111.29 297.947 111.469C298.227 111.649 298.55 111.739 298.917 111.739C299.123 111.739 299.313 111.712 299.489 111.658C299.666 111.603 299.824 111.524 299.961 111.42C300.098 111.313 300.212 111.184 300.302 111.033C300.394 110.881 300.458 110.708 300.494 110.514L302.049 110.521C302.009 110.855 301.908 111.177 301.747 111.487C301.589 111.795 301.374 112.071 301.104 112.315C300.837 112.556 300.517 112.748 300.146 112.89C299.776 113.03 299.358 113.099 298.892 113.099C298.243 113.099 297.663 112.953 297.152 112.659C296.643 112.366 296.241 111.941 295.945 111.384C295.651 110.828 295.504 110.154 295.504 109.364C295.504 108.571 295.653 107.896 295.952 107.339C296.25 106.783 296.655 106.359 297.166 106.068C297.678 105.775 298.253 105.628 298.892 105.628C299.313 105.628 299.704 105.687 300.064 105.805C300.426 105.924 300.747 106.097 301.026 106.324C301.306 106.549 301.533 106.825 301.708 107.151C301.886 107.478 301.999 107.852 302.049 108.273ZM307.097 107.819C307.069 107.532 306.947 107.31 306.731 107.151C306.516 106.993 306.223 106.913 305.854 106.913C305.603 106.913 305.391 106.949 305.218 107.02C305.046 107.089 304.913 107.184 304.821 107.308C304.731 107.431 304.686 107.57 304.686 107.727C304.681 107.857 304.708 107.97 304.767 108.067C304.829 108.165 304.913 108.249 305.02 108.32C305.126 108.388 305.249 108.449 305.389 108.501C305.529 108.55 305.678 108.593 305.836 108.629L306.49 108.785C306.807 108.856 307.098 108.951 307.363 109.069C307.628 109.187 307.858 109.333 308.052 109.506C308.246 109.679 308.397 109.882 308.503 110.116C308.612 110.351 308.668 110.62 308.67 110.923C308.668 111.368 308.554 111.754 308.329 112.08C308.107 112.405 307.785 112.657 307.363 112.837C306.944 113.014 306.439 113.103 305.847 113.103C305.26 113.103 304.748 113.013 304.313 112.833C303.88 112.653 303.541 112.387 303.297 112.034C303.056 111.679 302.929 111.24 302.917 110.717H304.405C304.422 110.96 304.492 111.164 304.615 111.327C304.74 111.488 304.907 111.61 305.115 111.693C305.326 111.774 305.564 111.814 305.829 111.814C306.09 111.814 306.316 111.776 306.507 111.7C306.702 111.625 306.852 111.519 306.958 111.384C307.065 111.249 307.118 111.094 307.118 110.919C307.118 110.756 307.07 110.618 306.973 110.507C306.878 110.396 306.738 110.301 306.554 110.223C306.371 110.145 306.148 110.074 305.882 110.01L305.091 109.811C304.477 109.662 303.993 109.429 303.638 109.112C303.283 108.794 303.107 108.367 303.109 107.83C303.107 107.389 303.224 107.004 303.461 106.675C303.7 106.346 304.028 106.089 304.444 105.905C304.861 105.72 305.334 105.628 305.865 105.628C306.404 105.628 306.876 105.72 307.278 105.905C307.683 106.089 307.998 106.346 308.223 106.675C308.448 107.004 308.564 107.386 308.571 107.819H307.097ZM313.65 107.819C313.621 107.532 313.499 107.31 313.284 107.151C313.068 106.993 312.776 106.913 312.407 106.913C312.156 106.913 311.944 106.949 311.771 107.02C311.598 107.089 311.466 107.184 311.373 107.308C311.283 107.431 311.238 107.57 311.238 107.727C311.234 107.857 311.261 107.97 311.32 108.067C311.382 108.165 311.466 108.249 311.572 108.32C311.679 108.388 311.802 108.449 311.942 108.501C312.081 108.55 312.23 108.593 312.389 108.629L313.042 108.785C313.36 108.856 313.651 108.951 313.916 109.069C314.181 109.187 314.411 109.333 314.605 109.506C314.799 109.679 314.949 109.882 315.056 110.116C315.165 110.351 315.22 110.62 315.223 110.923C315.22 111.368 315.107 111.754 314.882 112.08C314.659 112.405 314.337 112.657 313.916 112.837C313.497 113.014 312.992 113.103 312.4 113.103C311.813 113.103 311.301 113.013 310.866 112.833C310.432 112.653 310.094 112.387 309.85 112.034C309.608 111.679 309.482 111.24 309.47 110.717H310.958C310.974 110.96 311.044 111.164 311.167 111.327C311.293 111.488 311.46 111.61 311.668 111.693C311.879 111.774 312.117 111.814 312.382 111.814C312.642 111.814 312.868 111.776 313.06 111.7C313.254 111.625 313.405 111.519 313.511 111.384C313.618 111.249 313.671 111.094 313.671 110.919C313.671 110.756 313.622 110.618 313.525 110.507C313.431 110.396 313.291 110.301 313.106 110.223C312.924 110.145 312.7 110.074 312.435 110.01L311.643 109.811C311.03 109.662 310.546 109.429 310.191 109.112C309.836 108.794 309.659 108.367 309.662 107.83C309.659 107.389 309.777 107.004 310.013 106.675C310.252 106.346 310.58 106.089 310.997 105.905C311.414 105.72 311.887 105.628 312.417 105.628C312.957 105.628 313.428 105.72 313.831 105.905C314.236 106.089 314.55 106.346 314.775 106.675C315 107.004 315.116 107.386 315.123 107.819H313.65Z" fill="white"/>
</svg>
