<svg width="1889" height="777" viewBox="0 0 1889 777" fill="none" xmlns="http://www.w3.org/2000/svg">
<path d="M1833 0H51.1912C37.6195 0.0111251 24.6083 3.68642 15.0116 10.2197C5.41493 16.753 0.0163415 25.6109 0 34.8504L4.51223 742.15C4.52857 751.389 9.92716 760.247 19.5238 766.78C29.1205 773.314 42.1317 776.989 55.7035 777H1837.51C1851.08 776.989 1864.1 773.314 1873.69 766.78C1883.29 760.247 1888.69 751.389 1888.7 742.15L1884.19 34.8504C1884.17 25.6109 1878.78 16.753 1869.18 10.2197C1859.58 3.68643 1846.57 0.0111291 1833 0ZM1884.19 742.15C1884.19 746.323 1882.98 750.455 1880.64 754.311C1878.29 758.166 1874.85 761.67 1870.52 764.62C1866.18 767.571 1861.04 769.912 1855.38 771.509C1849.71 773.106 1843.64 773.928 1837.51 773.928H55.7035C43.3234 773.928 31.4504 770.58 22.6964 764.62C13.9424 758.661 9.02446 750.578 9.02446 742.15L4.51223 242.179C4.51223 210.779 13.5968 179.687 31.2474 150.677C48.898 121.667 74.7688 95.308 107.383 73.1048C139.997 50.9016 178.715 33.2891 221.327 21.2728C263.94 9.25657 309.611 3.07187 355.734 3.07187H1833C1839.13 3.07187 1845.2 3.89385 1850.86 5.49086C1856.53 7.08788 1861.67 9.42867 1866.01 12.3796C1870.34 15.3305 1873.78 18.8337 1876.13 22.6893C1878.47 26.5448 1879.68 30.6772 1879.68 34.8504L1884.19 742.15Z" fill="#6C63FF"/>
</svg>
